<?xml version="1.0" standalone="no"?>
<!DOCTYPE svg PUBLIC "-//W3C//DTD SVG 20010904//EN"
 "http://www.w3.org/TR/2001/REC-SVG-20010904/DTD/svg10.dtd">
<svg version="1.0" xmlns="http://www.w3.org/2000/svg"
 width="520.000000pt" height="520.000000pt" viewBox="0 0 520.000000 520.000000"
 preserveAspectRatio="xMidYMid meet">
<metadata>
Created by potrace 1.14, written by Peter Selinger 2001-2017
</metadata>
<g transform="translate(0.000000,520.000000) scale(0.100000,-0.100000)"
fill="#000000" stroke="none">
<path d="M2553 4365 c-10 -7 -21 -12 -25 -11 -3 0 -18 -9 -33 -22 -15 -13 -29
-21 -32 -19 -6 6 -83 -72 -83 -84 0 -5 -6 -8 -12 -6 -8 1 -12 -8 -12 -23 1
-14 -4 -29 -12 -33 -8 -5 -12 -12 -9 -17 3 -4 -2 -10 -10 -13 -9 -4 -13 -18
-11 -42 1 -19 -1 -36 -6 -36 -4 -1 -13 -2 -18 -3 -6 0 -14 -7 -19 -14 -9 -15
-80 -52 -100 -52 -8 0 -11 -3 -8 -7 10 -9 -31 -35 -43 -28 -10 6 -14 -7 -11
-32 1 -8 -9 -13 -24 -13 -14 0 -24 -4 -20 -9 3 -5 -4 -12 -15 -16 -11 -4 -17
-11 -14 -17 4 -6 2 -8 -4 -5 -15 10 -43 -3 -35 -17 4 -6 0 -5 -9 2 -14 11 -18
10 -28 -8 -6 -11 -8 -26 -4 -33 5 -6 -1 -5 -11 3 -11 9 -16 10 -11 3 5 -9 1
-13 -11 -13 -15 0 -16 -2 -3 -10 13 -8 12 -10 -3 -10 -11 0 -15 -4 -11 -12 4
-6 3 -8 -3 -5 -6 4 -16 0 -23 -8 -10 -12 -16 -13 -27 -3 -8 6 -13 7 -12 2 4
-16 -13 -44 -22 -38 -5 3 -9 0 -9 -7 0 -6 -8 -9 -19 -6 -16 4 -18 0 -15 -21 4
-22 3 -24 -11 -12 -13 11 -14 10 -9 -5 6 -14 4 -16 -6 -10 -10 6 -12 4 -7 -8
5 -12 1 -17 -13 -17 -11 0 -19 -3 -18 -7 2 -5 -5 -19 -15 -33 -9 -13 -17 -20
-17 -15 0 5 -7 0 -15 -11 -9 -12 -14 -14 -15 -6 0 7 -4 11 -9 8 -5 -4 -8 -14
-6 -24 3 -23 -13 -52 -29 -52 -9 0 -13 -9 -11 -25 1 -14 -2 -28 -7 -31 -4 -3
-6 -10 -3 -15 4 -5 1 -9 -4 -9 -6 0 -11 -11 -11 -25 0 -14 -7 -37 -16 -50 -10
-15 -12 -25 -5 -25 6 0 11 5 11 12 0 6 3 8 7 5 3 -4 -1 -15 -10 -25 -10 -10
-14 -22 -10 -26 4 -4 -1 -4 -11 0 -15 6 -17 4 -11 -6 6 -10 4 -12 -7 -8 -11 5
-14 0 -10 -19 3 -15 -1 -29 -9 -34 -12 -7 -11 -9 1 -9 12 -1 12 -3 -2 -11 -11
-6 -15 -16 -11 -26 4 -11 2 -14 -5 -9 -7 4 -9 -1 -6 -14 2 -11 6 -29 8 -40 3
-13 1 -18 -6 -14 -7 5 -9 2 -5 -9 3 -9 0 -18 -9 -21 -8 -3 -14 -10 -14 -16 0
-6 6 -8 13 -4 9 6 9 5 0 -7 -6 -8 -10 -27 -9 -42 3 -21 0 -27 -10 -23 -8 3
-14 2 -15 -2 -5 -45 -4 -50 5 -45 6 4 5 -1 -3 -10 -8 -11 -9 -17 -3 -17 6 0 9
-6 6 -14 -12 -31 -9 -81 6 -94 13 -11 13 -11 -1 -6 -13 4 -15 0 -11 -22 4 -22
2 -26 -10 -21 -13 4 -15 -2 -13 -31 1 -20 -2 -42 -7 -49 -6 -7 -5 -14 3 -19 8
-5 9 -3 4 6 -6 9 -4 11 4 5 9 -5 9 -11 3 -17 -6 -6 -8 -17 -5 -26 5 -11 3 -13
-7 -7 -10 6 -11 4 -4 -6 14 -22 14 -120 0 -112 -6 3 -3 -2 6 -13 13 -15 15
-23 7 -31 -8 -8 -8 -13 0 -17 6 -4 11 -13 11 -19 0 -7 -4 -6 -11 3 -9 12 -10
11 -6 -7 3 -14 0 -23 -6 -24 -7 0 -3 -4 8 -9 11 -5 15 -9 9 -9 -6 -1 -10 -16
-10 -35 1 -24 5 -32 15 -28 10 4 12 -1 6 -18 -5 -17 -4 -21 6 -16 8 4 6 1 -3
-7 -10 -8 -18 -19 -18 -25 0 -6 -7 -9 -15 -6 -8 4 -15 12 -15 19 0 8 -6 20
-13 27 -19 19 -21 29 -5 40 9 6 6 7 -9 3 -17 -5 -22 -3 -17 8 3 8 -1 21 -8 28
-8 8 -17 22 -21 31 -3 9 -15 16 -26 15 -11 0 -18 -4 -15 -8 2 -4 -4 -10 -15
-14 -15 -4 -19 -14 -17 -45 0 -22 -3 -40 -7 -40 -5 0 -5 -5 -2 -11 4 -6 8 -30
9 -55 1 -33 -3 -44 -14 -44 -10 0 -11 -3 -3 -8 6 -4 13 -16 15 -27 1 -11 7
-23 11 -26 14 -10 18 -59 5 -59 -6 0 -3 -7 8 -16 10 -8 13 -13 7 -9 -9 4 -12
-2 -11 -19 1 -13 5 -23 8 -21 3 1 10 -3 17 -10 10 -11 10 -15 0 -18 -8 -4 -8
-6 2 -6 11 -1 11 -4 1 -16 -10 -12 -10 -15 0 -15 9 0 9 -4 -1 -17 -10 -11 -10
-14 -1 -9 7 4 12 1 12 -9 0 -9 4 -14 8 -11 4 2 9 -4 9 -15 1 -10 -3 -19 -10
-19 -6 0 -2 -7 9 -16 10 -8 13 -13 7 -9 -18 9 -16 -7 3 -31 8 -10 12 -13 8 -5
-4 9 -3 12 4 8 5 -4 8 -16 5 -27 -3 -11 -10 -17 -16 -13 -6 3 -7 1 -3 -6 4 -6
12 -8 18 -5 7 5 9 1 5 -9 -3 -8 0 -18 7 -20 9 -4 12 -17 10 -37 -3 -21 0 -29
8 -24 7 5 8 3 2 -7 -14 -22 -11 -43 9 -57 12 -10 15 -18 8 -30 -6 -12 -5 -24
5 -36 7 -10 11 -22 9 -27 -3 -4 9 -19 27 -32 24 -20 36 -23 50 -16 11 6 18 6
18 0 0 -5 7 -12 16 -15 8 -3 12 -2 9 4 -3 6 -3 10 2 10 15 0 38 -19 39 -32 1
-7 2 -19 3 -26 0 -6 4 -11 9 -11 20 3 23 -3 11 -18 -10 -11 -10 -14 -1 -9 8 5
12 1 12 -13 0 -10 6 -22 13 -24 9 -4 9 -8 -1 -15 -11 -7 -11 -10 3 -16 9 -3
13 -10 10 -16 -3 -5 2 -10 12 -10 15 0 16 -2 3 -10 -12 -8 -12 -10 -1 -10 8 0
11 -3 8 -7 -4 -3 1 -12 11 -20 10 -9 11 -11 2 -7 -13 7 -13 5 -2 -9 8 -9 11
-21 7 -27 -4 -6 -1 -18 7 -27 10 -14 10 -15 0 -9 -9 6 -12 3 -10 -10 2 -11 7
-22 12 -25 5 -4 9 -25 10 -48 0 -22 6 -43 13 -45 7 -3 12 -21 11 -43 -1 -20 4
-39 10 -41 7 -2 12 -12 12 -22 0 -11 6 -23 13 -27 6 -4 12 -15 12 -23 0 -8 5
-14 12 -13 8 2 10 -4 6 -14 -4 -11 -3 -14 5 -9 13 8 13 11 15 -118 2 -63 -2
-90 -10 -93 -7 -3 -11 -9 -8 -13 3 -5 1 -12 -5 -15 -8 -5 -7 -12 2 -23 11 -13
10 -15 -5 -9 -13 5 -16 3 -10 -6 12 -19 14 -49 4 -42 -6 3 -15 -4 -21 -16 -7
-12 -8 -19 -2 -15 6 3 9 -5 8 -18 0 -13 -3 -24 -6 -24 -20 1 -30 -4 -25 -12 4
-6 11 -7 17 -4 7 4 8 2 4 -5 -4 -6 -11 -9 -16 -6 -16 10 -17 -20 -1 -39 11
-14 12 -17 2 -11 -11 6 -13 4 -8 -8 3 -9 1 -19 -5 -23 -7 -5 -8 -2 -3 7 8 12
6 12 -9 0 -12 -10 -14 -16 -5 -21 7 -5 7 -10 1 -14 -8 -5 -9 -24 -3 -59 2 -12
1871 -8 1871 4 0 5 3 8 8 6 4 -3 7 8 7 23 1 16 -2 27 -6 24 -4 -2 -11 0 -14 6
-4 6 -2 9 3 8 6 -2 11 2 13 7 1 6 9 15 17 21 8 6 13 18 9 26 -3 9 1 25 9 37 8
11 13 21 10 21 -3 0 -1 11 4 24 5 13 6 27 3 30 -11 10 -6 110 6 114 6 2 11 23
11 46 0 23 6 48 13 55 10 11 9 12 -2 6 -11 -6 -13 -2 -7 19 4 16 3 25 -2 22
-5 -3 -6 11 -2 34 4 21 4 44 -1 51 -4 7 -4 20 1 30 5 9 6 20 2 25 -4 5 2 2 12
-6 13 -10 17 -10 12 -2 -4 7 -2 12 5 12 7 0 9 3 6 7 -4 3 1 15 10 26 13 15 14
18 3 12 -13 -7 -13 -6 1 11 8 10 14 29 13 42 -1 15 3 21 11 18 8 -3 12 2 11
12 -2 9 3 22 10 29 7 7 11 21 10 30 -2 10 3 23 10 30 7 7 11 22 9 33 -2 11 1
22 6 25 5 4 6 12 2 18 -11 19 -10 127 1 127 6 0 4 5 -4 10 -13 9 -13 10 0 10
9 0 11 3 5 8 -13 9 -18 32 -7 32 10 0 9 30 -2 48 -4 7 -2 12 4 12 7 0 8 5 3
13 -11 17 -10 31 2 39 6 5 5 8 -4 8 -10 0 -11 3 -2 14 9 11 9 16 0 21 -8 6 -7
10 2 16 12 8 11 11 -1 19 -13 9 -13 10 0 10 9 0 11 3 5 8 -15 11 -17 32 -3 32
10 0 9 3 -1 9 -18 11 -2 20 43 23 27 1 35 6 31 16 -4 10 0 12 12 8 10 -4 14
-4 10 0 -4 4 -1 14 6 22 10 13 9 14 -3 7 -13 -8 -13 -7 -1 8 9 11 10 17 2 17
-6 0 -11 5 -11 11 0 5 5 7 10 4 6 -3 10 -1 10 5 0 6 4 9 8 6 12 -7 9 88 -3 96
-7 5 -7 8 0 8 15 0 16 40 2 40 -8 0 -8 3 -2 8 16 11 17 34 3 43 -10 7 -10 9 2
9 13 0 13 1 0 10 -8 5 -10 10 -3 10 13 0 12 18 -1 39 -6 9 -5 12 2 7 14 -8 12
36 -2 46 -6 4 -6 11 1 20 14 19 24 50 14 43 -5 -3 -12 -1 -16 5 -3 5 -2 10 4
10 5 0 8 12 5 26 -3 14 -1 23 3 21 4 -3 14 1 21 9 7 8 8 14 2 14 -5 0 -10 5
-10 11 0 5 6 7 13 3 10 -6 10 -4 0 7 -19 20 -16 33 5 18 16 -13 16 -13 0 7
-14 16 -15 23 -5 34 6 7 8 10 2 7 -6 -3 -10 22 -10 68 0 46 4 71 10 67 6 -4 6
-1 0 9 -6 8 -10 42 -10 77 0 34 -3 62 -7 62 -5 0 -8 7 -8 15 0 16 -5 18 -61
19 -32 1 -35 -1 -25 -17 8 -14 8 -20 -4 -27 -13 -9 -13 -10 1 -10 9 0 15 -9
15 -24 0 -14 -4 -22 -8 -20 -5 3 -5 10 -2 16 4 7 2 8 -4 4 -9 -5 -9 -13 -2
-27 10 -17 7 -23 -11 -21 -3 1 -6 -6 -7 -14 -1 -7 -3 -21 -4 -29 -1 -12 -4
-12 -16 -3 -9 8 -10 14 -3 16 6 2 11 8 11 13 0 6 -4 8 -8 5 -5 -3 -9 1 -9 9 0
8 4 15 9 15 5 0 4 9 -2 20 -8 15 -8 20 1 20 8 0 8 4 -1 15 -10 12 -10 15 1 15
12 0 12 2 0 9 -10 6 -10 10 -1 16 9 6 9 10 -1 16 -11 7 -11 9 -1 9 8 0 10 5 6
12 -12 20 -12 162 0 170 8 5 7 8 0 8 -13 0 -12 50 1 70 5 9 4 11 -3 6 -7 -4
-12 -2 -12 4 0 6 -5 8 -12 4 -7 -4 -8 -3 -4 4 8 13 -11 55 -22 48 -4 -2 -8 4
-8 15 0 10 3 19 6 19 3 0 5 14 5 30 0 20 -5 30 -15 31 -10 0 -8 3 5 9 17 7 17
9 3 9 -10 1 -18 8 -18 17 0 9 -5 12 -12 8 -9 -5 -9 -2 1 9 9 12 10 17 2 17 -7
0 -9 5 -6 10 4 6 11 8 16 5 5 -3 6 1 3 9 -3 9 -11 13 -18 9 -6 -4 -4 2 4 12 9
11 10 16 3 11 -8 -4 -13 -2 -13 4 0 6 -5 8 -12 4 -10 -6 -10 -4 0 8 10 13 10
17 -2 21 -9 4 -12 14 -9 28 4 15 3 20 -5 15 -15 -9 -15 -1 0 27 10 19 9 20 -4
10 -12 -11 -14 -8 -10 17 4 28 -2 35 -29 32 -3 -1 -6 5 -6 13 0 8 4 12 9 9 4
-3 8 0 8 5 0 6 -7 11 -15 11 -9 0 -20 11 -25 25 -5 14 -12 25 -15 25 -4 0 -3
-5 1 -12 4 -7 3 -8 -4 -4 -7 4 -12 15 -12 24 -1 21 -23 52 -39 52 -10 0 -15
14 -12 33 1 5 -3 6 -8 3 -5 -3 -16 6 -25 19 -10 14 -22 23 -28 19 -6 -4 -8 -3
-5 3 4 6 0 16 -8 23 -8 7 -12 16 -9 21 3 5 -2 12 -10 15 -9 3 -16 12 -16 20 0
8 -6 11 -17 7 -10 -3 -15 -3 -11 2 4 4 0 14 -8 23 -9 8 -13 23 -11 33 6 21 -8
26 -16 7 -5 -12 -11 16 -8 34 0 5 -2 7 -7 7 -4 -1 -14 -1 -22 0 -13 1 -13 2 0
12 12 9 10 10 -8 6 -18 -4 -21 -3 -12 8 8 10 8 15 -1 21 -8 4 -9 3 -5 -4 4 -7
3 -12 -3 -12 -5 0 -12 9 -16 19 -4 13 -12 17 -25 14 -14 -4 -20 0 -20 11 0 10
-4 14 -10 11 -5 -3 -10 -1 -10 5 0 6 -5 8 -12 4 -8 -5 -9 -2 -5 10 4 10 3 15
-3 11 -6 -3 -10 0 -10 7 0 9 -3 9 -10 -2 -6 -10 -10 -11 -10 -2 0 6 -7 12 -15
12 -8 0 -15 5 -15 11 0 5 -5 7 -10 4 -6 -3 -13 0 -16 9 -3 8 -12 12 -20 9 -7
-3 -17 2 -20 11 -3 9 -12 16 -20 16 -8 0 -14 5 -14 11 0 7 -9 9 -21 6 -17 -5
-18 -3 -7 10 12 15 10 15 -12 3 -14 -7 -22 -9 -18 -5 8 9 -31 55 -48 55 -6 0
-17 7 -24 15 -7 8 -16 12 -21 9 -5 -3 -9 0 -9 5 0 6 -6 11 -14 11 -10 0 -13
13 -12 48 1 26 -2 53 -7 60 -6 7 -6 12 0 12 5 0 9 11 9 24 0 14 -4 22 -8 20
-4 -3 -8 0 -8 6 0 6 -4 8 -10 5 -5 -3 -8 0 -5 7 9 22 -90 135 -122 140 -10 2
-21 7 -24 12 -11 14 -56 15 -76 1z"/>
<path d="M3410 3566 c0 -2 6 -9 14 -15 11 -9 16 -9 22 0 4 8 3 9 -4 5 -7 -4
-12 -2 -12 3 0 6 -4 11 -10 11 -5 0 -10 -2 -10 -4z"/>
<path d="M4596 993 c-6 -14 -5 -15 5 -6 7 7 10 15 7 18 -3 3 -9 -2 -12 -12z"/>
</g>
</svg>
