<?xml version="1.0" standalone="no"?>
<!DOCTYPE svg PUBLIC "-//W3C//DTD SVG 1.1//EN" "http://www.w3.org/Graphics/SVG/1.1/DTD/svg11.dtd" >
<svg xmlns="http://www.w3.org/2000/svg" xmlns:xlink="http://www.w3.org/1999/xlink" version="1.1">
<metadata>
Created by FontForge 20190801 at Tue Oct  6 20:50:50 2020
 By Jimmy Wärting
</metadata>
<defs>
<font id="Smilety-Regular" horiz-adv-x="330" >
  <font-face 
    font-family="Smilety"
    font-weight="400"
    font-stretch="normal"
    units-per-em="1000"
    panose-1="2 0 5 3 0 0 0 0 0 0"
    ascent="800"
    descent="-200"
    x-height="525"
    cap-height="744"
    bbox="20 -176 1021 857"
    underline-thickness="50"
    underline-position="-150"
    unicode-range="U+000D-00F8"
  />
<missing-glyph horiz-adv-x="364" 
d="M33 0v666h265v-666h-265zM66 33h199v600h-199v-600z" />
    <glyph glyph-name=".notdef" horiz-adv-x="364" 
d="M33 0v666h265v-666h-265zM66 33h199v600h-199v-600z" />
    <glyph glyph-name=".null" 
 />
    <glyph glyph-name=".null" 
 />
    <glyph glyph-name="nonmarkingreturn" horiz-adv-x="333" 
 />
    <glyph glyph-name="CR" unicode="&#xd;" 
 />
    <glyph glyph-name="space" unicode=" " 
 />
    <glyph glyph-name="exclam" unicode="!" horiz-adv-x="372" 
d="M184 31q3 8 25 8q14 0 17 -2.5t3 -15.5q0 -27 -9.5 -34t-46.5 -7q-42 0 -55 6t-13 26q0 15 3 18t17 3q22 0 29 -7q6 -6 13 -6q11 0 17 11zM188 72q0 15 3 18t18 3t17.5 -3t2.5 -18t-2.5 -18t-17.5 -3t-18 3t-3 18zM117 72q0 14 2.5 17.5t15.5 3.5q12 0 14.5 -3t2.5 -18
t-2.5 -18t-14.5 -3q-13 0 -15.5 3.5t-2.5 17.5zM227 126q-11 4 -40 4q-31 0 -42 -4q-61 -23 -73 -52q-8 -22 -8 -34q0 -18 16 -40q32 -44 82 -44q29 0 55.5 17.5t42.5 50.5q11 24 11 35q0 12 -17 37.5t-27 29.5zM126 174q18 6 47 6q40 0 75 -9.5t35 -22.5q0 -9 8 -12
q21 -13 21 -78q0 -33 -3 -46t-15 -33q-21 -37 -43.5 -49.5t-73.5 -14.5h-21q-66 0 -98 27q-21 18 -28.5 38t-7.5 59q0 51 10.5 73.5t39.5 37.5q38 18 54 24zM301 737q0 9 -4 11.5t-18 1.5q-42 -1 -79.5 -6.5t-39.5 -10.5q-2 -6 -44 -6h-42l3 -99q2 -67 10 -159.5t10 -134.5
q2 -44 4 -56t7 -12q3 0 5 1q10 3 59 3h46v39q0 49 41 222q42 173 42 206zM37 647l-2 142h149l157 -2q6 0 6 -27q0 -34 -10 -84q-3 -19 -11.5 -59t-12.5 -62q-6 -39 -18 -80q-36 -137 -36 -202v-43l-57 -4q-65 -4 -96 -7q-7 -1 -21 -1q-19 0 -22 3q-4 4 -8 94q-2 56 -9 147.5
t-9 184.5z" />
    <glyph glyph-name="quotedbl" unicode="&#x22;" horiz-adv-x="415" 
d="M335 636q0 8 -3 10.5t-14 2.5h-11q-35 -1 -41.5 -8.5t-12.5 -57.5q-7 -58 -7 -97v-38h52l4 31q3 25 19 87q14 52 14 70zM214 647l3 47q29 0 86.5 1t86.5 1l-3 -34q-9 -75 -31 -155q-9 -34 -13 -66l-4 -34h-27q-22 0 -68 -4l-40 -4l3 100q4 108 7 148zM138 589l3 67h-67
v-25q0 -19 6 -82t10 -81q3 -14 19 -14q12 0 15 5t6 30q5 45 8 100zM21 695q0 9 3.5 11.5t17.5 2.5q20 0 20 -7q0 -4 20 -4q4 0 46 2l65 4v-23q0 -23 -5 -28q-6 -6 -13 -122q-7 -115 -9 -117t-54 -6l-53 -3l-7 17q-6 13 -15 118t-10 112q-6 24 -6 43z" />
    <glyph glyph-name="quotesingle" unicode="'" horiz-adv-x="248" 
d="M146 629l11 33l-22 -1q-27 -1 -45.5 -7t-18.5 -14q0 -4 10.5 -85.5t10.5 -89.5q1 -5 18 5q12 7 14.5 16t5.5 52q4 59 16 91zM168 712q3 3 29 3q18 0 22 -2.5t4 -15.5q0 -20 -8 -31q-16 -26 -33.5 -98.5t-17.5 -112.5q0 -11 -5.5 -17t-25.5 -16q-30 -15 -55 -15h-25
l-10 98q-9 97 -16 116q-6 19 -6 36q0 22 10 22q9 0 16 9q6 9 63 15q57 7 58 9z" />
    <glyph glyph-name="comma" unicode="," horiz-adv-x="277" 
d="M180 139q9 20 8 21q-17 0 -37 -2l-35 -3l-10 -42q-10 -40 -20 -63q-9 -20 -9 -27q0 -8 17 -8q18 0 21 11q7 19 33 58q29 48 32 55zM165 205q11 2 58 5l31 1v-23q0 -24 -33 -84q-29 -55 -48 -81q-14 -17 -14 -30q0 -11 -37 -24t-70 -13h-31l4 41q4 45 24 102q21 65 24 81
q3 14 8 16.5t27 3.5q20 0 57 5z" />
    <glyph glyph-name="period" unicode="." horiz-adv-x="282" 
d="M94 114q0 13 3 16.5t14 3.5q16 0 32 -7q16 -8 16 -27q0 -14 -3 -16.5t-22 -2.5q-23 0 -31.5 7t-8.5 26zM186 186q-5 3 -15 11t-19 12.5t-18 4.5q-10 0 -22 -6l-15 -8l20 -1q14 0 16.5 -3t2.5 -18t-3 -17.5t-18 -2.5t-18 3t-3 19v21l-12 -14q-20 -23 -20 -43q0 -8 3 -17
q7 -25 29 -40t49 -15q34 0 57 22q22 22 22 37q0 10 -6 22l-8 20l-1 -19q-1 -14 -3.5 -17t-17.5 -3t-18 3t-3 18t3 18t17 3h19zM70 245q26 13 51 13q3 0 10.5 -0.5t11.5 -0.5q47 -1 54 -11q9 -11 26 -19q24 -13 30.5 -29.5t6.5 -63.5q0 -42 -2.5 -52.5t-15.5 -23.5
q-30 -30 -87 -30q-20 0 -31 1q-66 3 -85 23.5t-19 87.5q1 47 11 68.5t39 36.5z" />
    <glyph glyph-name="zero" unicode="0" horiz-adv-x="507" 
d="M338 566l4 19l-32 -1q-61 -2 -76 -15q-4 -3 -12 -79t-10 -134q-2 -54 -2 -58q0 -12 1.5 -18t3 -7.5t6.5 -3.5l3 -1h3q13 0 34 7q18 6 25 12.5t16 26.5q13 29 18 56.5t9 98.5q3 64 9 97zM215 613q12 4 20 6t18 3t16 1.5t24 1t31 0.5l59 1l-3 -52q-11 -185 -19 -235
q-4 -25 -16 -56q-8 -21 -15.5 -29t-27.5 -17q-31 -14 -76 -14q-26 0 -42 6l-15 6v85q0 95 8 167q12 106 19 116q3 5 19 10zM399 721q-3 8 -67 8q-47 0 -72 -5q-45 -8 -96 -30q-21 -8 -27 -10t-17.5 -10.5t-13 -10.5t-8.5 -18t-9 -25t-10 -38q-9 -32 -11.5 -57t-2.5 -96v-70
q0 -132 4.5 -171.5t21.5 -60.5q15 -20 64 -20q17 0 37 3q9 2 65.5 10.5t73.5 15.5q6 3 19.5 8.5t16.5 6.5q14 5 32.5 23t31.5 38q7 10 8.5 47.5t1.5 179.5q0 153 -1.5 186.5t-10.5 56.5q-13 33 -20 33q-9 0 -10 6zM157 747q57 25 162 25h24q73 -1 92 -9.5t33 -47.5
q11 -28 13 -65.5t2 -214.5q0 -172 -2 -210t-10 -52q-11 -17 -36 -40t-32 -23q-6 0 -24 -9q-26 -13 -102.5 -25t-133.5 -12q-16 0 -23 1q-24 2 -37 4.5t-25.5 13.5t-17.5 24t-9.5 45t-6 67t-2.5 99q-1 36 -1 94q0 140 28 241l16 58l35 13q41 14 57 23z" />
    <glyph glyph-name="one" unicode="1" horiz-adv-x="392" 
d="M326 450l-3 146h-55q-37 0 -48 -2t-18 -10t-46 -37l-35 -25l46 -1l46 -2l-3 -170q-2 -168 -14 -223q-9 -43 -9 -54q0 -6 50 -13.5t77 -7.5h16v126q0 111 -4 273zM172 633q8 9 33 9q5 0 63 -2q90 -4 94 -8t6 -312l1 -308l-45 -1h-21q-50 0 -85 4q-62 7 -73 21
q-10 13 -10 34q0 20 9 49q24 76 30 247l4 112q-26 -1 -78 -3.5t-78 -4.5v19q0 16 13 29.5t75 60.5q55 42 62 54z" />
    <glyph glyph-name="two" unicode="2" horiz-adv-x="622" 
d="M341 647q-27 8 -43 8q-20 0 -92 -21q-40 -12 -79.5 -30t-39.5 -25q0 -5 9 -12q8 -6 21 -33l11 -27l26 17q44 31 94 31q20 0 25 -2.5t9 -15.5q7 -20 7 -49q0 -56 -25.5 -120t-66.5 -107q-25 -26 -58.5 -50t-46.5 -24q-7 0 -9 -10t-2 -49v-61l97 4q64 2 213 7q81 3 99 5.5
t18 9.5q0 12 15 51q12 33 12 41q0 1 -3 1q-17 0 -74 -5q-59 -5 -128 -5t-76 7t-7 26q0 13 6 19t33 19q33 16 48.5 29.5t44.5 51.5q36 47 47.5 71t19.5 68q7 35 7 49t-11 36q-15 32 -44 59.5t-57 35.5zM247 693q19 3 47 3q53 0 82 -8q63 -18 105 -100l22 -44l-9 -73
q-14 -112 -46 -144q-6 -6 -18 -23t-19 -24q-31 -36 -45 -48l-21 -17l30 4q41 5 126 8l96 4v-31q0 -52 -18 -66q-4 -4 -18 -44q-19 -56 -23.5 -65.5t-16.5 -9.5h-5q-12 0 -16 2.5t-4 10.5q0 7 -4 9t-24 2q-3 0 -65 -2q-69 -3 -219 -7l-126 -4v16q0 15 -6 15t-6 74
q0 47 1.5 60.5t7.5 13.5q7 0 9 11q0 9 48 45q48 35 69 65q26 35 45 82.5t19 75.5q0 13 -4 18q-4 4 -8 4q-13 0 -35.5 -16t-32.5 -35q-9 -16 -14.5 -20.5t-17.5 -4.5q-13 0 -19.5 5.5t-19.5 26.5q-19 34 -19 38q0 7 -47 65q-6 6 -6 24q1 17 26 33q84 53 199 71z" />
    <glyph glyph-name="three" unicode="3" horiz-adv-x="512" 
d="M340 696q-23 12 -43 16h-5q-16 0 -42.5 -9.5t-38.5 -19.5q-10 -8 -45 -29l-36 -22l8 -26q2 -8 6.5 -19.5t4.5 -12.5q2 -8 24 4q20 12 72 12h49v-32q0 -33 -14 -48q-14 -14 -21 -14q-6 0 -13 -9q-12 -10 -28 -17q-11 -5 -30.5 -22t-30.5 -22q-12 -5 -14.5 -12t-2.5 -33
q0 -35 11 -43t63 -10q73 -4 101 -25q10 -8 12.5 -16.5t2.5 -35.5q0 -35 -8 -46t-36 -15q-18 -2 -49 -2q-116 0 -142 8q-2 1 -6 1q-7 0 -12 -26q-4 -15 -4 -23q0 -9 9 -21q12 -17 28 -17q17 0 50 -12q34 -12 79 -12q44 0 81 18q32 16 65 47t46 57q11 22 11 50q0 34 -18 63.5
t-51 46.5q-18 9 -33 9t-36 -9q-22 -9 -39 -9q-11 0 -14.5 2t-3.5 9q0 1 0.5 5t0.5 6q2 20 11 26q38 15 89 48t68 54q14 17 14 35q0 14 -1 25q-7 86 -89 127zM226 748q26 8 65 8h11q33 0 68 -17q29 -13 42.5 -24t32.5 -36q13 -18 22 -56t9 -74q0 -14 -1 -21q-4 -33 -16.5 -53
t-41.5 -39l-29 -19l23 -10q19 -8 37.5 -27.5t26.5 -40.5q12 -29 12 -75q0 -58 -18 -96q-12 -25 -47.5 -57.5t-67.5 -48.5q-27 -13 -43.5 -16t-60.5 -3h-9q-153 0 -200 45q-19 18 -19 44q0 20 14 82q10 43 14 51t17 10h3q17 0 32 -15q20 -18 41 -25q18 -5 53 -5q70 0 83 11
q7 5 6.5 8.5t-9.5 13.5q-25 25 -101 25q-42 0 -60 8q-11 5 -13.5 11.5t-2.5 34.5q0 35 -4 75l-4 36l20 9q15 7 36 23q11 9 53 37q33 20 33 24q0 1 -1 1q-6 0 -32 -16q-31 -19 -54 -19q-35 0 -44 49q-4 19 -22 40q-17 19 -17 35q0 20 23 32q9 4 66 39.5t74 40.5z" />
    <glyph glyph-name="four" unicode="4" horiz-adv-x="592" 
d="M235 701q0 2 -61 2h-62l-4 -22q-4 -24 -4 -108v-21q0 -42 -3 -75.5t-10 -79t-10 -67.5q-8 -59 -9 -61q-1 -1 -1 -3q0 -6 114 -13q109 -8 130 -13l28 -6l-3 -43q-4 -52 -7 -73q-2 -16 -2 -19q0 -12 11.5 -15t60.5 -6l56 -3l4 149q4 170 21 302q9 67 18 98q8 32 8 37t-7 14
q-8 9 -37 9h-20l-48 -2l-4 -29q-2 -16 -16 -160q-13 -130 -14 -131t-78 -3l-77 -3l-2 51v11q0 46 7 84q5 24 13 100.5t8 98.5zM65 711l7 34h205l-2 -55q-12 -198 -21 -233q-7 -23 -7 -40q0 -11 4 -13.5t24 -2.5h11h11q20 0 23.5 2t3.5 14q0 15 6 23q5 5 9 67q8 132 19 195
l4 25h84q84 0 92 -9q7 -9 19 -9q7 0 9 -4t0 -18q-2 -12 -25 -108q-9 -37 -28 -190q-4 -33 -8 -199q-4 -155 -8 -159q-1 -1 -14 -1q-32 0 -94.5 4.5t-80.5 8.5q-6 1 -8 3t-3.5 8t-1.5 20q0 25 1 45l2 74l-18 6q-8 3 -120.5 12t-120.5 13q-11 4 -14 9.5t-3 22.5q0 27 5 37
q19 38 19 93q0 27 9 81q7 41 7 86q0 29 -1 46q-1 16 -1 44q0 41 5 68z" />
    <glyph glyph-name="five" unicode="5" horiz-adv-x="549" 
d="M409 662q-3 5 -33 5q-39 0 -62 -7q-5 -2 -83 -11q-72 -6 -102 -9l-37 -3v-125q0 -82 1 -101.5t6 -19.5q1 0 3 1q33 15 138 15q50 0 74 -6q23 -5 37 -22q9 -11 11 -24.5t2 -58.5q0 -50 -2.5 -61t-15.5 -26q-18 -20 -52 -37q-31 -14 -56 -14q-6 0 -48 2q-71 4 -83 7
q-2 1 -5 1q-8 0 -17 -32q-9 -34 -13 -44v-1l-1 -1q0 -5 19.5 -7t93.5 -5q64 -2 81 -2q59 0 86 7.5t51 29.5q27 25 40 51q16 27 18 29q6 5 14.5 52.5t8.5 78.5q0 29 -5.5 47.5t-25.5 57.5q-6 13 -40 26q-32 13 -108 13h-76v82l82 -3q77 -3 104 -8l22 -3v60q0 41 -2 50.5
t-10 9.5q-11 0 -15 6zM281 702q14 6 74 6q111 0 117 -11q5 -8 5 -100q0 -100 -6 -103q-5 -2 11 -20q26 -29 33 -51.5t8 -81.5v-30q0 -81 -17.5 -133t-58.5 -96q-28 -30 -56 -39t-104 -9q-19 0 -97 2q-154 4 -162 7q-6 3 -6 17q0 23 13 74q8 32 16 76q5 27 9 32t18 5
q20 0 26 -12q13 -25 82 -33q7 -1 21 -1q44 0 83 30q37 29 37 66q0 24 -16 46q-15 21 -67 21q-21 0 -56 -5q-31 -5 -89 -10l-43 -3v332l41 4q44 4 104 9q70 6 80 11z" />
    <glyph glyph-name="six" unicode="6" horiz-adv-x="503" 
d="M307 290q-4 10 -30 10q-19 0 -22.5 -2.5t-3.5 -16.5q0 -18 4 -32q1 -9 5 -9q2 0 27 11q27 13 27 20q0 2 -1.5 5t-3 7.5t-2.5 6.5zM214 337q4 4 59 4t55 -8t20 -13q12 -4 15 -8.5t5 -19.5q2 -23 -4 -29t-6 -21q0 -14 -25 -26q-28 -14 -35 -21q-6 -6 -31 -6h-14
q-25 2 -30 4t-8 15q-4 17 -4 80q0 46 3 49zM371 664q-47 7 -72 7q-18 0 -30 -3q-35 -8 -103 -48t-69 -54q0 -10 -6 -12q-5 -2 -12 -121q-8 -128 -12 -157q-6 -37 -6 -83q0 -38 5 -45q3 -7 69 -23q60 -15 96 -15q4 0 13 0.5t14 0.5q39 2 55.5 7t53.5 23q53 27 61 39
q7 10 7 70q0 129 -16 156l-11 18h-66q-66 0 -103 -12q-28 -10 -50 -10h-4l-20 2l1 35q0 37 14 66q15 29 39 37.5t95 11.5l72 2l4 27q3 21 3 52q0 18 -3 22t-19 7zM225 706q21 6 76 6q63 0 115 -7l32 -3l-3 -31q-3 -22 -10 -59q-5 -18 -7 -66l-2 -38l-68 1h-13
q-101 0 -119 -30l-9 -16l112 2q26 1 62 1q51 0 57 -7q15 -15 19 -44t7 -130l4 -133l-18 -16q-22 -20 -64 -40l-45 -24l-87 -2q-14 -1 -41 -1q-53 0 -78 5q-105 22 -117 35q-8 10 -8 92q0 61 6 105t11 154q5 102 14.5 129.5t47.5 52.5q71 49 126 64z" />
    <glyph glyph-name="seven" unicode="7" horiz-adv-x="566" 
d="M499 672q0 42 -6 42h-1q-81 -10 -198 -10q-11 0 -36 0.5t-38 0.5l-140 3l-4 -45q-2 -31 -8 -75l-3 -29q37 1 111 3.5t111 4.5l-2 -35q-2 -27 -32 -106.5t-48 -106.5q-12 -19 -25 -52q-7 -16 -22 -49t-26.5 -57.5t-11.5 -27.5q0 -4 17 -4t29 1q57 5 68 10t22 31
q28 66 164 331q45 92 63 110q11 11 13.5 21t2.5 39zM401 750q88 6 91 6h16q15 0 18 -2t3 -12q0 -15 6 -15t6 -67q0 -46 -2 -58.5t-10 -19.5q-21 -18 -134 -245q-115 -233 -115 -247q0 -9 -21 -9t-21 4t-53 4q-25 0 -39 -1l-91 -3v18q0 18 14 46q15 30 15 36t11 21
q13 18 30 63q19 47 36 77q12 20 41.5 90.5t29.5 78.5q0 4 -104 6l-106 1l1 33q0 23 8 115l8 82l155 -4q30 -1 90 -1q88 0 117 3z" />
    <glyph glyph-name="eight" unicode="8" horiz-adv-x="561" 
d="M317 301q0 5 -4 5q-9 0 -29.5 -18t-37.5 -41l-13 -18h15q13 0 48.5 11.5t48.5 20.5q13 7 13 14q0 8 -20 14q-21 8 -21 12zM210 289q0 2 18 24t18 24q0 3 3.5 5t11 3t12.5 1t16 0.5t14 0.5h8q30 0 65 -18q26 -14 31 -19.5t5 -21.5q0 -37 -16 -54.5t-65 -34.5
q-39 -12 -101 -12h-67v24q0 24 24 49q23 25 23 29zM310 566q4 11 3 15t-10 5q-13 4 -20 0q-7 -3 -7 -12t6 -17t15 -8q7 0 13 17zM237 617q14 15 46 15q33 0 54 -7l21 -5v-35q0 -29 -7.5 -52.5t-18.5 -27.5q-8 -3 -40 -3q-20 0 -28.5 3.5t-21.5 17.5t-16.5 22.5t-3.5 26.5
q0 29 15 45zM368 678q-36 22 -62 22q-12 0 -35 -5q-71 -17 -131 -74q-42 -41 -42 -64q0 -25 48 -73q28 -28 38.5 -35t25.5 -7q25 0 33.5 -5t8.5 -20q0 -19 -10 -26.5t-34 -7.5q-19 0 -29 -6t-38 -34q-53 -54 -71 -122q-4 -13 -4 -27q0 -19 14 -33t51 -32q25 -13 47 -13
q17 0 50 6q39 7 78 11q53 7 104.5 37t74.5 67q8 13 8 23q0 3 -4 25q-6 32 -21 45q-15 15 -15 21q0 8 -26.5 35t-34.5 27q-10 0 -10 23q0 16 3.5 21.5t19.5 14.5q21 11 28.5 27t7.5 48q0 24 -11 57.5t-19 33.5q-3 0 -7 11q-4 9 -36 29zM237 736q26 7 69 7h11q36 -2 49.5 -5
t36.5 -18q36 -23 56 -56q15 -25 18.5 -38.5t4.5 -59.5q0 -7 0.5 -18.5t0.5 -16.5q0 -65 -18 -82q-8 -8 -8 -11q0 -4 14 -19q18 -20 18 -25q0 -4 16 -20q31 -31 31 -112q0 -41 -12 -62q-37 -60 -125.5 -93.5t-211.5 -34.5q-39 0 -53.5 3t-44.5 18q-43 22 -55 41
q-13 18 -13 41q0 16 1 27q2 35 15 77.5t26 58.5q19 23 39 44l31 33l-22 24q-5 6 -15.5 16.5t-14 15t-10 13.5t-9 17t-4.5 20.5t-2 28.5q0 51 12 73.5t59 58.5q48 38 110 54z" />
    <glyph glyph-name="nine" unicode="9" horiz-adv-x="619" 
d="M350 532q4 24 4 29q0 15 -8.5 19.5t-30.5 4.5q-13 0 -16.5 -4t-6.5 -20q-3 -22 -13 -30q-7 -6 -7 -10q0 -8 37 -8q27 0 32.5 2.5t8.5 16.5zM252 606l3 26l60 -4q63 -4 74.5 -9.5t11.5 -33.5q0 -37 -6 -72l-7 -41h-172l3 35q3 37 16 55q13 19 17 44zM475 694q-75 7 -206 7
q-45 0 -51 -2q-22 -10 -39.5 -41t-36.5 -95q-23 -78 -23 -127q0 -22 4 -34q6 -23 16 -33t30 -13q32 -5 60 -12q24 -6 43 -6q6 0 8 1q63 22 82 43q13 13 26 13t13 12t22 12h22l-4 -61q-4 -67 -24 -98.5t-74 -55.5q-39 -17 -149 -17q-59 0 -88 8l-31 9v-80l31 -7
q79 -18 177 -18q4 0 12 0.5t11 0.5q59 3 100 28t75 80q75 119 75 256v5q-1 67 -28 176l-11 45zM179 740q8 2 62 2q196 0 278 -7q30 -2 36 -4.5t6 -12.5t17 -72q11 -41 13.5 -68t2.5 -112q0 -105 -7.5 -145t-39.5 -105q-22 -44 -31.5 -57t-38.5 -42q-37 -37 -66 -47.5
t-102 -11.5h-31q-122 0 -213 20q-32 8 -37.5 11.5t-5.5 18.5q0 20 9 20t9 65v15q0 30 3 40t15 10q9 0 59 -15q42 -14 76 -14q4 0 14 0.5t16 0.5q113 6 154 68q18 27 18 32h-1q-7 0 -32 -14q-25 -13 -40.5 -15.5t-78.5 -2.5q-86 0 -89 6q-4 6 -19 10q-25 7 -34.5 16t-16.5 32
q-9 30 -9 72q0 121 55 244q24 55 49 62z" />
    <glyph glyph-name="colon" unicode=":" horiz-adv-x="238" 
d="M167 199q-8 5 -20 5q-9 0 -49 -7q-22 -4 -26.5 -7.5t-4.5 -17.5q0 -16 4 -38l3 -20l48 5q48 4 51 7q3 2 3 35v7q0 24 -9 31zM96 247q10 5 40 5q45 0 61 -8l18 -10v-74q0 -49 -1.5 -62t-8.5 -16q-6 -2 -90 -4h-80l-4 15q-5 18 -8 75q-3 32 -3 44q0 11 2.5 14t9.5 3
q30 0 64 18zM129 537q-3 6 -30 6q-19 0 -22.5 -2t-3.5 -15q0 -2 -5 -54q-2 -24 -2 -25q0 -10 5 -10q2 0 8 2q11 3 29 10t30 10q15 4 17.5 8.5t4.5 29.5q0 4 0.5 10.5t0.5 8.5q0 11 -2.5 13t-11.5 2q-14 0 -18 6zM29 531l4 55l68 -3q68 -1 71 -9q2 -7 17 -7q11 0 12.5 -8.5
t1.5 -59.5q0 -55 -5 -66.5t-31 -16.5q-13 -2 -26 -9q-28 -18 -82 -18h-34v43q0 39 4 99z" />
    <glyph glyph-name="question" unicode="?" horiz-adv-x="568" 
d="M276 104q-8 11 -27 11q-14 0 -38 -6q-29 -9 -29 -31q0 -4 2 -10q0 -1 3 -10.5t4 -14.5l1.5 -6t1.5 -4t2.5 -3t3 -1.5t4.5 -0.5q2 0 18 2q31 4 58 19.5t27 28.5q0 15 -12 15q-13 0 -19 11zM167 148q16 4 53 4q69 0 89 -9q16 -9 25 -9q8 0 8 -56v-55l-25 -13
q-56 -29 -121 -29q-26 0 -34 7q-19 13 -21 91q0 63 26 69zM352 685q-13 11 -101 11q-43 0 -78 -5q-21 -3 -59.5 -18t-38.5 -20q0 -6 19.5 -44t22.5 -38q16 14 26 22q16 10 29 12.5t56 2.5q63 0 78.5 -9t23.5 -49q5 -28 5 -48q0 -8 -1 -11q-5 -22 -28 -58t-47 -58
q-21 -19 -31 -23.5t-32 -4.5h-32v-104l35 4q45 5 83 5l48 1v124h19q30 0 71 40.5t67 96.5q15 34 15 47q0 12 -11.5 29.5t-25.5 28.5t-17 15q-5 5 -47.5 25.5t-48.5 25.5zM142 733q32 4 106 4h30q99 -1 110 -11q8 -7 36.5 -21t34.5 -14q11 0 45 -33.5t38 -48.5q1 -3 1 -19
q0 -27 -1 -43q-2 -42 -12.5 -68t-43.5 -69q-21 -28 -33.5 -39.5t-40.5 -26.5q-30 -17 -35 -27.5t-5 -52.5v-51l-73 -4q-92 -5 -128 -7l-55 -5l4 83q3 81 7 95t25 14h12q26 0 34 4.5t33 29.5q56 59 56 98q0 7 -1 10q-3 20 -16.5 28t-42.5 8q-48 0 -82 -52q-8 -11 -11 -15.5
t-8 -7t-11 -2.5q-2 0 -5 0.5t-4 0.5q-15 2 -19.5 6t-11.5 25q-8 27 -26 63q-15 34 -15 43q0 10 -6 10t-6 14q0 26 11 35q16 14 49.5 28t59.5 18z" />
    <glyph glyph-name="A" unicode="A" horiz-adv-x="763" 
d="M383 546q3 24 6 28.5t18 4.5q20 0 20 -12t11 -12t18 -18.5t7 -47.5v-29h-95v23q0 24 5 27q6 4 10 36zM555 457q-56 164 -69.5 197.5t-23.5 34.5h-4q-21 0 -64 -5l-55 -6l-26 -54q-27 -55 -31 -69q-3 -12 -39 -101q-39 -99 -106 -240q-40 -86 -40 -94l1 -3q1 -1 7 -1
q17 0 60 5q56 6 68 16.5t37 72.5q10 27 46 107l23 50l31 -4q34 -4 77 -4q31 0 38 -1.5t7 -9.5t12 -38q12 -28 30 -97t18 -87q0 -16 3.5 -19t22.5 -3q21 0 61 4q33 4 33 10q0 2 -1 4q-3 7 -10.5 33t-15.5 42q-14 30 -90 260zM354 727q28 0 80.5 8.5t55.5 8.5l19 1l27 -79
q7 -21 39 -118t61.5 -182.5t41.5 -112.5q7 -15 28 -64q17 -38 17 -45t9 -18q9 -13 9 -33v-22l-57 -4q-64 -4 -101 -4q-29 0 -36 2t-7 10q0 12 -15 12q-9 0 -12 2.5t-3 11.5q0 14 -18 81.5t-31 100.5l-13 35h-72l-16 -29q-16 -28 -31 -70q-21 -54 -45 -105l-20 -40l-24 3
q-4 1 -18 1q-37 0 -96 -6t-63 -10q-7 -5 -22 -5q-11 0 -14 3.5t-3 17.5q0 20 5 20t25 52q28 72 51 120q61 127 103 235q62 160 85 196l15 25z" />
    <glyph glyph-name="B" unicode="B" horiz-adv-x="521" 
d="M277 267q2 6 2 8q0 3 -5 3q-1 0 -17 -2q-20 -3 -20 -9q0 -5 18 -7q20 -2 22 7zM224 320q8 1 58 3l39 1v-47q0 -46 -7 -53t-55 -7q-45 0 -57 6q-11 6 -11 44q0 31 6 40.5t27 12.5zM273 542q1 4 -4 5.5t-18 1.5q-28 0 -28 -8q0 -4 7 -10q4 -3 13 -3q25 0 30 14zM184 579
q11 11 65 11h15q38 0 47.5 -8t9.5 -38q0 -29 -16 -45q-10 -10 -20.5 -12.5t-36.5 -2.5q-70 0 -78 33q-2 8 -2 15q0 31 16 47zM343 635q-19 9 -99 12q-21 1 -50 1q-38 0 -65 -10q-34 -12 -45 -12q-6 0 -8.5 -10.5t-4.5 -46.5q-1 -16 -10 -127q-6 -70 -6 -136q0 -155 23 -162
q49 -14 112 -14q30 0 48 1q56 3 72 6t35 15q30 18 37 18q10 0 36 26.5t33 43.5q5 12 5 23q0 44 -66 96q-22 18 -36 18q-13 0 -27 12t-34 12q-14 0 -16.5 3t-2.5 20t2.5 20.5t13.5 3.5q21 0 55.5 11.5t41.5 20.5q27 39 27 76q0 2 -0.5 4t-0.5 3q-3 15 -26.5 39.5t-43.5 32.5z
M92 679q30 10 78 10q42 0 74 -1q82 -1 103 -4t44 -14q31 -16 34 -27q4 -11 9 -11q10 0 17 -23t7 -55q0 -47 -16 -85.5t-39 -44.5q-10 -3 -10 -4.5t11 -5.5q17 -7 47 -37t38 -49q10 -25 10 -67q0 -31 -6 -52q-5 -20 -32.5 -47.5t-45.5 -31.5q-17 -4 -17 -8q0 -5 -30 -17
q-31 -14 -133 -17q-18 -1 -52 -1q-122 0 -151 21q-7 5 -8.5 38.5t-1.5 172.5q0 208 5 270q4 44 6.5 55.5t9.5 11.5q12 0 12 6q0 5 37 17z" />
    <glyph glyph-name="C" unicode="C" horiz-adv-x="566" 
d="M436 652q-29 10 -56 10q-53 0 -128 -46q-76 -46 -130 -130t-54 -157q0 -46 19.5 -82t69.5 -85q64 -61 178 -61q23 0 47 3q41 6 60.5 15.5t39.5 34.5q14 17 18 27t4 31q0 42 -12 42q-6 0 -22 -8q-22 -11 -58 -11q-24 0 -40 1q-75 2 -99 15q-71 37 -77 135l-2 47l29 31
q69 72 208 75q37 1 43 8t6 48q0 28 -7.5 37.5t-36.5 19.5zM282 691q32 13 97 13q58 0 91 -11q37 -12 44 -24t7 -61q0 -52 -4 -96l-3 -40h-32q-20 0 -26.5 2.5t-8.5 9.5q-4 11 -22 11q-19 0 -51 -8q-56 -13 -95 -43t-39 -59q0 -6 1 -9q6 -24 26.5 -48.5t43.5 -35.5
q34 -16 73 -16q31 0 51 11q38 22 47.5 29.5t9.5 17.5q0 9 3.5 11t18.5 1l22 -2l4 -38q2 -16 4 -102l1 -63l-19 -22q-42 -48 -107 -56q-43 -6 -84 -6q-76 0 -150 21q-33 10 -74 53q-44 44 -64 84q-20 39 -22 92q0 4 -0.5 11.5t-0.5 11.5q0 105 63 201q72 109 195 160z" />
    <glyph glyph-name="D" unicode="D" horiz-adv-x="624" 
d="M354 455q-22 21 -33 21q-8 0 -17 -4q-12 -5 -37 -5l-25 -1v-160h20q16 0 25.5 6.5t18.5 8.5q32 7 63 55q13 21 13 34q0 18 -28 45zM197 504l-5 27h67q66 0 66 -6t17 -6q15 0 34.5 -12.5t33.5 -30.5q16 -22 16 -66q0 -36 -12 -62q-19 -42 -55 -61t-101 -21l-58 -2v106
q0 112 -3 134zM277 667q-25 5 -93 5q-49 0 -64 -3q-4 -1 -11.5 -2t-9.5 -2t-6.5 -2t-5 -3.5t-2.5 -5.5t-2 -8t-0.5 -11.5t-0.5 -16.5v-45q0 -77 -10 -197q-7 -81 -7 -165q0 -100 11 -107q6 -4 16 -4q17 0 67 10q31 5 97 18q141 26 223 111q44 46 63 76q12 21 14.5 34.5
t2.5 63.5q0 51 -2.5 64.5t-18.5 38.5q-32 54 -88 97q-45 34 -106 43q-38 5 -67 11zM67 706q30 8 138 8q81 0 108 -6q34 -7 62 -11q48 -8 76.5 -21.5t73.5 -52.5q12 -11 35.5 -44.5t34.5 -56.5q8 -17 8 -61q0 -31 -1 -53q-4 -95 -10 -108q-23 -50 -80 -107
q-28 -29 -46.5 -41.5t-54.5 -28.5q-41 -18 -77 -27t-152 -30q-50 -9 -91 -9q-42 0 -54 9q-8 6 -9.5 22.5t-3.5 94.5q0 7 -0.5 21.5t-0.5 22.5q0 87 8 173q9 102 9 189q0 67 -6 67t-6 23q0 18 5 18q1 0 6 1.5t13 3.5t15 4z" />
    <glyph glyph-name="E" unicode="E" horiz-adv-x="542" 
d="M467 663q-2 2 -131 5t-207 3q-38 0 -42 -1l-16 -3l3 -212q2 -214 7 -266q6 -45 6 -80v-27l67 -3q57 -4 120 -4q69 0 132 6l67 7v48q0 43 -5 63q-4 12 -14 12q-2 0 -22 -2q-22 -3 -75 -10t-72 -9l-32 -4v62q0 41 2 53t10 17q14 6 95 6h84l-5 43q-4 41 -6 46q-3 3 -99 3
h-96l1 26q2 78 20 93q8 7 49 7q46 0 90 -8q43 -8 56 -8q11 0 14.5 5.5t3.5 21.5q0 4 -0.5 17.5t-0.5 22.5q-2 69 -4 70zM49 710q12 2 103 2q349 0 356 -7q3 -2 5 -115l2 -112h-14q-41 0 -154 18q-30 4 -35 4q-12 0 -17.5 -5t-6.5 -20l-3 -20l84 3q19 1 48 1q40 0 47 -4
q8 -4 11.5 -18t8.5 -64q6 -62 6 -83q0 -8 -88 -8q-90 0 -98 -3q-9 -3 -9 -22v-17l31 3q27 3 106 7l75 4l4 -32q2 -14 6 -103l3 -72l-75 -7q-70 -6 -173 -6q-80 0 -153 3l-72 4l-4 60q-4 58 -9 285q-3 213 -9 249q-1 5 -1 18t2 29q3 14 7.5 19.5t15.5 8.5z" />
    <glyph glyph-name="F" unicode="F" horiz-adv-x="521" 
d="M451 646v33h-28q-24 0 -58 -8q-15 -5 -71 -8.5t-119 -6.5t-76 -4l-35 -4l3 -134q3 -131 13 -181q7 -35 9 -167q0 -108 6.5 -129t41.5 -25q56 -5 93 -17q3 -1 6 -1q5 0 6 10.5t1 54.5q0 54 -6 94t-8 92l-4 91h21q25 0 55 8q32 9 71 9h38l-1 47q-2 46 -7 51h-2
q-11 0 -36 -11q-63 -27 -134 -27h-22v141l34 3q28 3 117 7l85 4l3 22q4 24 4 56zM324 710q19 8 147 16l28 1l-3 -61q-4 -69 -7 -100l-4 -40l-86 -3q-91 -4 -118 -7l-32 -4v-54l24 4q21 3 59 20q35 17 72 18l39 3l4 -28q4 -30 4 -96v-67h-43q-44 0 -76 -9t-47 -9h-15l3 -75
q7 -138 8 -178l4 -103h-23q-21 0 -66 15q-46 13 -89 17q-44 4 -52 10q-7 6 -7 142q-1 139 -10 181q-9 43 -12 214q-2 122 -2 125q0 29 1.5 36.5t7.5 9.5q15 5 86 10t122 5q67 0 83 7z" />
    <glyph glyph-name="G" unicode="G" horiz-adv-x="594" 
d="M371 691q-36 6 -71 6q-92 0 -117 -31q-11 -16 -33 -36q-39 -38 -54.5 -107.5t-24.5 -249.5q-3 -72 -3 -99q0 -26 4 -29q14 -7 67 -23t65 -24q9 -5 96 -8q19 -1 53 -1q105 0 120 18q20 27 30 113q4 38 15 121q2 15 4 33.5t3.5 28.5t1.5 11q0 5 -85 5h-85l-9 -37
q-10 -42 -13 -57l-3 -19h107l-2 -34q-2 -26 -4.5 -31t-20.5 -11q-74 -24 -145 -24q-30 0 -34 6q-26 32 -26 162q0 58 2 78t10 38q13 29 21 29q9 0 9 6q0 18 96 18q31 0 50 -1l103 -4v62v26q0 31 -13.5 39t-79.5 20q-22 4 -34 6zM180 728q22 9 73 9q6 0 22.5 -0.5t26.5 -0.5
q98 -3 144.5 -9t82.5 -21q7 -3 8.5 -21.5t1.5 -92.5v-109l-34 3q-35 4 -67 9q-36 6 -76 6q-54 0 -71 -10q-23 -13 -31.5 -34.5t-9.5 -76.5q0 -6 -0.5 -17t-0.5 -15q0 -36 10 -66q5 -13 7.5 -18.5t7 -9t12.5 -3.5q13 0 43 6l29 6l-40 1q-30 1 -35 3t-5 13q0 39 27 130
q9 31 9 39q0 10 7 12q8 2 129 2h122l-2 -41q-3 -69 -26 -235q-13 -111 -38 -123q-39 -18 -128 -18q-45 0 -72 1q-120 4 -150 15q-48 18 -72 25q-5 1 -18 5t-15 5l-10 5t-9 7t-4 10t-3.5 15.5t-0.5 20.5q0 13 2 52.5t3 63.5q9 204 22 275t48 108l42 46q18 20 39 28z" />
    <glyph glyph-name="H" unicode="H" horiz-adv-x="677" 
d="M561 692q-3 5 -64 5q-62 0 -68 -5q-6 -4 -6 -44t1 -71l2 -110l-62 -3q-97 -5 -105 -5q-5 0 -8.5 0.5t-5.5 0.5t-3 1.5t-1.5 2.5t-1.5 4t-1 4q-3 13 -5 88t-4 86l-4 27h-30q-36 0 -78 -13l-47 -13l3 -202q1 -60 3 -166.5t2 -130.5l1 -97h138l-4 66q-3 62 -17 120
q-11 55 -11 70v17h65q61 0 99 9q29 8 70 8h35l-4 -66q-9 -165 -9 -197q0 -33 9 -33q15 0 81 9.5t68 11.5q1 1 1 6q0 13 -5 43q-20 140 -27 416q-4 154 -7 161zM547 745q7 5 23 5q24 0 28 -10q5 -11 9 -182q4 -182 10 -237q15 -156 25 -208q5 -24 10 -63l3 -27l-92 -11
q-93 -11 -104 -18q-12 -7 -30 -7h-5l-22 2v124q0 122 4 154l4 28l-22 -4q-20 -3 -87 -7l-64 -2l4 -25q11 -75 18 -180l4 -67h-225l-3 262q-4 272 -7 343l-4 81l28 4q17 2 59 10q17 4 67 4h25l62 -2l4 -92q4 -91 8 -102q5 -11 54 -11h50v113v50q0 47 8 58t43 11h41q64 0 74 6
z" />
    <glyph glyph-name="I" unicode="I" horiz-adv-x="317" 
d="M227 649l8 38q0 2 -3 2q-13 0 -59 -10t-65 -16q-27 -10 -27 -17q0 -1 2 -11q5 -16 9 -157q1 -31 1 -88q0 -118 -13 -343l-2 -31l77 4l79 4q-13 380 -14 430q-1 43 -1 100q0 66 8 95zM102 710q124 31 168 34h10q10 0 12.5 -2.5t2.5 -11.5q0 -16 -18 -81l-18 -66l3 -128
q5 -183 18 -445l1 -33l-107 -1q-15 0 -37.5 -0.5t-30.5 -0.5q-50 0 -64 4t-17 17q-1 2 -1 9q0 14 5 31q9 30 22 297q2 52 2 81q0 154 -13 191q-5 11 -5 53v37z" />
    <glyph glyph-name="J" unicode="J" horiz-adv-x="630" 
d="M540 637q-5 78 -10 83q-2 2 -47 2h-31l-73 -2l4 -48q20 -238 20 -498q0 -47 -2 -67q-6 -40 -47 -68.5t-91 -28.5q-29 0 -38 3.5t-27 22.5q-25 26 -25 45q0 8 -0.5 10.5t-2.5 4.5t-6 2q-7 0 -13 -1q-34 -6 -54 -8l-32 -4l4 -19q12 -54 65 -107q37 -37 72 -53.5t84 -19.5
q10 -1 27 -1q24 0 29 5q7 7 21 7t24 5q9 6 37 13q25 7 50.5 24.5t33.5 32.5q3 7 20 38q23 42 34 88q1 4 1 36q0 77 -5.5 220.5t-9.5 167.5q-6 32 -12 115zM477 -121q-9 0 -17 -6t-18 -6q-14 0 -17 -6q-4 -6 -21 -6q-18 0 -21 -6q-3 -5 -79 -5q-70 0 -104.5 9.5t-73.5 39.5
q-36 28 -51 45t-30 48q-21 40 -21 104q0 20 3 35l3 19l50 4q39 3 109 7l61 5v-23q0 -17 11.5 -41.5t23.5 -24.5q1 0 3 1q15 4 30 24t24 46q8 26 8 69q0 15 -7 227q-9 248 -14 294l-3 30l79 1q79 0 91 5q14 6 40 6h8q21 0 26 -16q6 -15 12 -90q6 -79 12 -107q5 -27 12 -253
q4 -150 4 -168q0 -66 -7 -94.5t-29 -72.5q-25 -49 -55 -71q-33 -23 -42 -23z" />
    <glyph glyph-name="K" unicode="K" horiz-adv-x="681" 
d="M218 705q1 4 1 10q0 5 -5 5q-6 0 -24 -7q-23 -9 -73 -13l-51 -4l-1 -296v-158q0 -135 6 -135q1 0 10.5 1.5t24.5 3t29 2.5l56 4v112q0 85 4 107t22 22q1 0 4.5 -0.5t5.5 -0.5q19 -1 26 -22q8 -23 22 -45q16 -26 19 -37q2 -8 37 -82l32 -69l19 4q15 3 96 3h78l-37 35
q-9 8 -41 37.5t-48 44.5q-55 51 -70 73q-16 23 -28 27q-11 4 -11 13t-11 12t-14 30q-1 5 -1 14q0 16 28 52q40 51 115 129q56 58 56 68l-1 1q-6 6 -78 6l-72 1l-10 -35q-5 -21 -9.5 -30t-12.5 -20t-15 -25q-32 -56 -39 -61q-5 -4 -17 -4h-8h-27l-5 43q-1 10 -1 28q0 33 9 89
t10 67zM182 762q46 12 61 12h19v-42q0 -44 -9 -102q-9 -59 -9 -66l1 -2q5 0 27 46.5t27 67.5l8 34l32 -3q19 -2 59 -6t85.5 -8t58.5 -5q25 -3 29.5 -6t4.5 -17q0 -12 -9.5 -26.5t-41.5 -48.5q-28 -31 -66 -70.5t-64 -68.5q-28 -35 -36 -43t-8 -15t60.5 -69.5t99.5 -95.5
q35 -30 86 -79q49 -45 55 -45q7 0 7 -19v-19h-136q-88 0 -113.5 -2t-33.5 -9q-14 -10 -27 -10q-10 0 -16 7t-18 33q-4 9 -39 82q-20 42 -20 48q0 8 -12 23l-12 18l2 -89l1 -89l-26 -2q-38 -1 -80 -8t-48 -12q-6 -4 -26 -4h-7l-25 2v351l-1 351l59 -3q6 0 15.5 -0.5
t13.5 -0.5q36 0 72 10z" />
    <glyph glyph-name="L" unicode="L" horiz-adv-x="524" 
d="M278 606q3 24 -3 24q-4 -1 -56 -5q-48 -6 -82 -18t-45 -12q-7 0 -7 -28q0 -4 2 -66q2 -27 2 -70q0 -57 -16 -229q-3 -35 -6 -103v-47l145 3q225 5 225 11q3 50 15 114l4 16h-55q-66 -2 -95 -9q-27 -6 -70 -9h-32l1 70q0 36 2 59t4 33.5t9 35.5t12 49q15 69 29 110
q12 36 17 71zM191 667q24 1 53 5.5t52 5.5h34v-28q0 -53 -24 -135q-26 -82 -43 -162t-17 -112q0 -12 2 -14q1 -1 6 -1q14 0 29 4q30 7 125 7h94v-27q0 -24 -9.5 -77.5t-10.5 -68.5l-4 -40l-49 -4q-7 0 -178.5 -7t-197.5 -11l-29 -4l4 121q3 117 13 208q7 56 7 107
q0 43 -8 166l-3 50l28 -3q2 0 6 -0.5t7 -0.5q21 0 47 9q29 12 66 12z" />
    <glyph glyph-name="M" unicode="M" horiz-adv-x="801" 
d="M737 656q0 3 -34 3q-21 0 -61 -1.5t-45 -1.5l-60 -2l-7 -24q-7 -25 -20 -49q-7 -14 -25 -76.5t-22 -73.5q-10 -29 -44 -135q-9 -30 -13.5 -35.5t-17.5 -5.5t-18.5 5t-16.5 25q-23 42 -103 280q-14 42 -22 62l-6 16h-151l-3 -288q-2 -186 -2 -204q0 -85 5 -88q8 -4 89 -4
h26q40 0 48 2t10 11q3 10 -2 26q-5 15 -5 102l-1 91h21q14 0 20 -6t21 -36q22 -42 22 -54q0 -11 15.5 -48t22.5 -44q4 -4 14 -7.5t26 -7t18 -3.5q17 -4 23 10q19 41 57 85q4 4 35 68q22 45 28.5 53t21.5 8h20l-3 -25q-5 -36 -22 -94q-27 -98 -29 -169l-1 -22l71 4l71 4l1 7
q1 6 2.5 20t3.5 25q9 67 24 348q4 89 12 182q6 52 6 67zM561 697q19 1 142 4l76 1v-42q0 -35 -6 -99q-4 -35 -13 -184q-13 -272 -23 -355l-7 -57l-91 -4q-82 -3 -119 -8l-29 -3l3 35q1 9 4 35t4 35q1 8 1 20q0 13 -4 13q-6 0 -16 -23l-11 -25l-51 3q-55 3 -76 8t-29 17
q-7 11 -12 11t-5 -22q0 -15 1 -26l4 -46l-29 5q-24 5 -92 5q-70 0 -100 -5q-24 -2 -27 -2q-14 0 -23 10q-10 11 -10 87q0 63 3 263l4 336h233l25 -73q85 -249 89 -256q0 -1 1 -1q12 0 37 86q44 156 54 178q13 27 20 51l7 24z" />
    <glyph glyph-name="N" unicode="N" horiz-adv-x="697" 
d="M612 663q-4 0 -30 3t-37 4l-32 4v-389h-19q-17 0 -27 5q-7 4 -22.5 34.5t-15.5 39.5q0 10 -5 13t-12 31q-5 18 -36.5 74.5t-41.5 64.5q-16 14 -38 77l-11 31l-48 -1q-51 0 -79 -11l-30 -11l-3 -190q-4 -235 -33 -379q-2 -11 0.5 -13.5t16.5 -2.5q24 1 74.5 9t54.5 12
q10 12 24 217q7 93 9 100t22 7q15 0 20.5 -8t22.5 -56q27 -72 28 -74q6 -12 6 -18q0 -7 20 -43q23 -35 31 -77q17 -78 23 -84q3 -3 8 -3q2 0 12 2q21 3 55 13q32 9 75 9h44v186q0 176 4 304l3 116zM470 567l1 165h17q16 0 23 -7q8 -8 51 -12q14 -1 44 -4t36 -4l37 -5v-693
h-63q-65 0 -79 -7q-18 -10 -102 -22q-21 -3 -28 5q-7 7 -20 70q-12 63 -29 91q-18 29 -18 31l-12 28q-10 21 -17 43l-5 12v-2q0 -2 -0.5 -7.5t-0.5 -11.5q-1 -41 -8 -118.5t-11 -84.5q-6 -12 -6 -19q0 -16 -114 -16q-76 0 -76 -6t-21 -6q-14 0 -17.5 2.5t-3.5 15.5
q0 11 -2.5 14.5t-9.5 3.5q-8 0 -10 8t-2 44q0 51 15 139q34 199 34 319q0 51 -8 70q-4 8 -4 26q0 11 1 16q3 17 6 22t10 5q10 0 46 12q37 12 119 15q24 1 54 1q20 0 25.5 -2t5.5 -8q0 -32 48 -107q10 -16 24.5 -36.5t22 -32t17 -31.5t17.5 -46l11 -36z" />
    <glyph glyph-name="O" unicode="O" horiz-adv-x="720" 
d="M416 500q-22 12 -29 12q-11 -1 -35.5 -15t-34.5 -25q-13 -14 -23.5 -41t-10.5 -46t12.5 -48.5t26.5 -43.5q20 -20 55 -20q50 0 83 33q26 26 26 83q0 41 -15.5 65.5t-54.5 45.5zM320 540q40 20 70 20q31 0 63 -19q64 -35 72 -80q2 -12 2 -41q0 -6 -0.5 -21t-0.5 -22
q-2 -63 -12.5 -87t-44.5 -42q-32 -16 -63 -16q-4 0 -16 0.5t-20 0.5q-50 2 -61.5 4.5t-24.5 15.5q-23 23 -31.5 51.5t-8.5 84.5q0 45 3 60t16 39q11 21 21.5 30.5t35.5 21.5zM414 708q-20 5 -48 5q-29 0 -49 -5q-50 -12 -109.5 -60.5t-87.5 -100.5q-48 -89 -55 -196
q0 -3 -0.5 -10t-0.5 -10q0 -92 57.5 -158t163.5 -96q62 -17 113 -17q113 0 172 67q17 18 37.5 60.5t24.5 66.5q4 25 12 25q7 0 11 10q4 12 4 70q0 99 -7 129q-17 74 -71 130q-24 25 -76 53t-91 37zM284 749q24 5 79 5q65 0 90 -7q35 -8 69 -26q40 -19 46 -19q5 0 46 -39
q63 -63 80 -150q6 -24 6 -100q0 -35 -1 -54q-2 -82 -4 -104t-11 -38q-8 -14 -18.5 -36t-20.5 -39.5t-22 -35.5q-24 -35 -24 -41q0 -5 -49 -25q-37 -15 -57 -17.5t-91 -2.5q-84 0 -126 8t-100 35q-43 20 -78 54.5t-55 76.5l-19 40l1 99q0 99 13 146q38 135 125 207
q27 22 62 40.5t59 22.5z" />
    <glyph glyph-name="P" unicode="P" horiz-adv-x="594" 
d="M376 570q-13 9 -52 12l-41 5l-3 -45q-2 -30 -2 -39t1 -9q1 -1 4 -1q11 0 35.5 8.5t33.5 16.5q18 15 26 28q7 11 6.5 14.5t-8.5 9.5zM243 625q3 5 17 5q24 0 76 -5q65 -6 79 -15q15 -10 15 -27q0 -13 -1 -23q-3 -41 -18 -62q-19 -24 -43.5 -33.5t-76.5 -11.5l-59 -2l4 84
q4 85 7 90zM374 714q-49 15 -102 15q-67 0 -126 -23l-40 -16l1 -177q1 -39 1 -98q0 -95 -11 -190q-15 -126 -15 -129l-4 -19h166l-3 97q-2 91 -5.5 119t-11.5 28t-7 22q1 15 5 19t18 7q13 2 43 14q19 8 49 8h8h7q27 0 49 10q44 21 78 55.5t34 58.5q0 15 11 30q9 12 9 19
q0 4 -5 22q-27 91 -149 128zM198 768q27 3 65 3q96 0 138 -13q57 -17 99.5 -49t58.5 -70q13 -30 13 -69q0 -34 -11 -69q-7 -23 -10 -30t-10.5 -17.5t-13.5 -19.5q-14 -22 -45 -45q-22 -20 -81.5 -41t-92.5 -21h-27l3 -61q7 -140 7 -199q0 -26 -2 -30q-5 -6 -53 -6h-23h-17
q-118 0 -126 -21q-4 -11 -25 -11h-21l3 26q1 5 4 31.5t8 69t10 79.5q17 143 17 215q0 54 -1 92q-3 143 -8 182l-3 30l26 11q63 26 118 33z" />
    <glyph glyph-name="Q" unicode="Q" horiz-adv-x="694" 
d="M419 501q-39 16 -93 16q-22 0 -25 -5q-3 -6 -17 -6t-51 -40.5t-45 -65.5q-10 -32 -10 -56q0 -33 14 -53q13 -19 37.5 -36t43.5 -21q13 -3 16 -1t3 13q0 16 10 19q13 5 56.5 31.5t45.5 30.5q2 6 22 6q24 0 31 -7q5 -5 16 4q8 8 8 27q0 4 -2 38q-4 48 -16.5 70t-43.5 36z
M258 548q11 11 42 11q27 0 48 -1q79 -3 105 -15q48 -21 69 -73q14 -36 14 -82q0 -19 -5 -19q-7 0 -7 -32q0 -21 -4 -30.5t-22 -29.5q-16 -18 -24 -23t-21 -5q-21 0 -30 9q-5 5 -9 5q-6 0 -33 -15l-32 -20l2 -28v-13q0 -11 -2.5 -13t-14.5 -2q-18 0 -21 6t-29 6q-35 1 -74 20
t-56 45q-10 14 -12 29t-2 69q0 51 2.5 68.5t10.5 33.5q17 32 42.5 59t38.5 27q11 0 24 13zM430 638q-29 15 -45.5 19.5t-55.5 6.5q-34 2 -39 2q-24 0 -47 -13q-27 -15 -44.5 -30.5t-40.5 -45.5q-42 -54 -67 -126t-25 -135q0 -16 1 -24q4 -40 26 -84t55 -78q54 -54 95 -54
q25 0 64 15t67 15q19 0 19 -8q0 -7 8 -11q6 -2 27 -41l20 -39l19 9q13 6 31 20t33 21l22 12l-19 43q-20 42 -24 46t-4 24t11 20q12 0 32 22t40 40q38 34 38 99q-2 71 -44 135q-23 35 -70 78t-83 62zM204 692q23 11 40 13.5t79 2.5h87l49 -25q117 -63 177 -171
q36 -66 36 -151q0 -95 -42 -135q-17 -15 -17 -26q0 -10 -11 -10t-18 -9q-4 -4 -4 -14q0 -16 19 -77q8 -27 8 -47t-7 -26q-35 -30 -41 -30q-4 0 -23 -12.5t-32 -23.5q-19 -17 -63 -17q-13 0 -22.5 10.5t-31.5 48.5q-12 19 -21 28t-13 9q-5 0 -25 -9q-37 -16 -83 -16
q-19 0 -19 5q0 6 -44 28q-51 25 -92.5 76.5t-56.5 109.5q-8 29 -8 98q0 56 5 86q14 87 65.5 171t108.5 113z" />
    <glyph glyph-name="R" unicode="R" horiz-adv-x="621" 
d="M323 556q-21 17 -26 15q-58 -9 -58 -18q0 -19 1 -33l3 -36l27 4q34 7 51 12q14 5 18 9.5t4 14.5q0 16 -20 32zM224 609q68 4 76 4q41 0 62 -18q14 -12 18 -21t7 -36q2 -26 2 -38t-1 -15q-6 -27 -71 -35q-29 -4 -53 -16q-25 -11 -45 -11q-12 0 -15 4q-3 3 -7 92l-4 87z
M411 689q-22 7 -62 7q-57 0 -185 -19q-98 -13 -98 -32q0 -3 2.5 -35t7.5 -120t11 -205q2 -36 5 -100t4 -75l4 -58l37 4q36 4 41 9q8 6 20 6q10 0 12 11t2 78q0 78 5.5 98.5t26.5 20.5t42 -27.5t55 -100.5l29 -58q6 -10 72 -12q10 0 26.5 -0.5t21.5 -0.5l20 1q0 7 -84 130
q-29 44 -32 55q-4 13 -9 13q-3 0 -18 24q-14 24 -24 24q-18 0 -18 43q0 12 5.5 14t37.5 2q44 0 81 16q25 11 33 19t19 30q14 29 14 49q0 14 -1 23q-4 40 -15 73q-10 30 -36.5 57.5t-51.5 35.5zM215 731q28 5 104 5h27q95 -1 113 -11q16 -10 27 -14q10 -4 26.5 -28.5
t27.5 -52.5q14 -34 16 -106q1 -19 1 -43q0 -34 -15 -65q-12 -25 -20.5 -33t-39.5 -23q-44 -22 -44 -33q0 -5 6 -9q5 -3 31.5 -54t31.5 -68q4 -12 37 -64.5t44 -64.5q11 -13 11 -31q0 -13 -3.5 -16t-19.5 -3q-21 0 -28 5q-7 7 -60.5 10.5t-102 6.5t-48.5 11q0 9 -6 9
q-7 0 -21 34q-3 6 -16 33t-19 39l-19 37l-1 -86l-2 -86l-19 -3q-73 -15 -110 -15h-14l-50 2l-4 60q-3 40 -24 417q-7 115 -7 160l-1 41l27 11q17 5 45.5 10t68.5 10.5t50 7.5z" />
    <glyph glyph-name="S" unicode="S" horiz-adv-x="523" 
d="M333 703q0 5 -13 5q-28 0 -65 -15q-106 -43 -165 -141q-21 -34 -21 -57q0 -10 5 -25q31 -88 158 -116q49 -11 63 -18t22 -25q11 -22 11 -72q0 -40 -8 -48q-14 -11 -61.5 -18.5t-92.5 -7.5q-38 0 -55 6q-6 3 -9 3q-6 0 -10 -26l-2 -8q-5 -33 -5 -38q0 -6 1.5 -7t8.5 -1h4
q17 0 63 -12q41 -11 76 -11q4 0 12 0.5t13 0.5q37 2 51 7t47 27q44 30 50 30t6 9q0 11 17 37q24 39 24 71q0 31 -22 54q-45 50 -63.5 66t-45.5 30q-43 20 -63 25q-22 5 -27 17t-5 59q0 38 8 50.5t36 17.5q30 5 62 5q52 0 64 -9q11 -9 23 -9q7 0 8.5 7.5t1.5 36.5q0 45 3 55
v2l1 2q0 9 -12.5 15.5t-31.5 6.5q-15 0 -38.5 7t-23.5 12zM35 84q1 21 9 69.5t9 64.5v25h24q24 0 24 -4q0 -7 32.5 -19t52.5 -12t54.5 8t41.5 15q3 3 3 11q0 31 -18 49q-12 12 -27 12q-34 0 -97 26.5t-78 46.5q-41 56 -41 114q0 20 5 45q11 55 66 113t122 86q32 14 96 15
q61 0 74 -8q11 -7 31 -9q16 0 44 -13l27 -14l-3 -27q-5 -36 -8 -108l-3 -82h-21q-22 0 -38 15q-18 14 -27 14q-7 0 -23 10q-10 7 -25 7q-4 0 -18 -2q-49 -7 -49 -35q0 -23 33 -30q28 -6 65 -27.5t58 -44.5q47 -51 59 -70t12 -52q0 -8 -2 -42t-6 -48.5t-15 -32.5
q-18 -26 -22 -42q-4 -14 -9 -14q-4 0 -51 -31l-47 -30l-84 -3q-19 -1 -47 -1q-43 0 -87 11q-50 13 -73 13h-23v31z" />
    <glyph glyph-name="T" unicode="T" horiz-adv-x="673" 
d="M567 732q-19 0 -47 1t-41 1q-25 0 -68 -3q-41 -4 -152 -4h-54l-133 3v-46q0 -42 -4 -66l-4 -23h210v-70q0 -57 -6 -147t-7 -144l-3 -96l78 3q78 2 79 3v6q0 8 -4 130q-2 41 -4.5 123t-3.5 102l-4 91q34 -2 100 -4.5t100 -3.5q-1 24 -2 72t-2 72h-28zM379 773q44 3 120 3
q121 0 136 -6q7 -2 7 -44v-29v-21q0 -51 4 -89l5 -41q-34 0 -102.5 2t-102.5 2l5 -224l4 -224l-83 -4q-90 -4 -123 -7l-41 -4l3 41q0 4 19 354l4 74q-35 0 -105 -2t-105 -2v29q0 61 5 112t11 51q8 0 8 15v15l130 -3q29 -1 93 -1q74 0 108 3z" />
    <glyph glyph-name="U" unicode="U" horiz-adv-x="666" 
d="M214 617l3 73h-64q-65 0 -68 -7q-10 -34 -20 -142q-2 -26 -2 -38q0 -121 60 -237t150 -167q58 -33 98 -33q8 0 11 1q43 8 92 46t69 79q22 43 36 118t14 144q0 25 -1 37q-1 11 -1 38q0 43 3 75q2 26 3.5 43t0.5 17q0 1 -54 5l-54 4l2 -113q1 -26 1 -63q0 -54 -11 -98
q-22 -83 -50 -110q-48 -46 -103 -46q-22 0 -29 3.5t-18 17.5q-43 54 -51 146q-2 23 -7 56t-8 60t-3 57q0 22 1 34zM39 704q2 26 5 30t17 4q20 0 22 -5q0 -3 24 -3q23 0 62 3q41 4 78 4q14 0 16 -1q10 -3 10 -27q0 -16 -6 -22q-10 -10 -10 -94q0 -44 4 -64q5 -28 12 -86
q6 -62 36 -121q15 -28 29 -28q13 0 47 26q19 15 28 33t23 68q16 59 16 126q0 51 -9 85q-9 36 -9 54q0 21 13 25q12 3 44 3q47 0 98 -4l55 -4l-4 -57q-3 -55 -9 -209q-4 -123 -13 -178.5t-34 -106.5q-14 -29 -48.5 -62t-69.5 -50q-43 -20 -95 -20q-100 0 -168 56
q-117 99 -163 257q-16 54 -16 183q0 52 5 97q3 23 10 88z" />
    <glyph glyph-name="V" unicode="V" horiz-adv-x="785" 
d="M239 662v16h-76q-72 0 -72 -6q0 -1 38 -89q28 -67 41 -108.5t36 -138.5q20 -90 33 -121q11 -30 11 -63q0 -22 -6 -25q-5 -3 -5 -12t116 -9q79 0 97.5 1.5t18.5 8.5q0 10 39 126t54 151q22 52 114 228q16 32 16 40q0 5 -93 5q-58 0 -73 -1.5t-15 -7.5q0 -8 -21 -77
t-34 -101q-16 -42 -31.5 -99.5t-16.5 -79.5q-1 -17 -2.5 -22t-5.5 -7t-16 -3q-14 -1 -18 1t-4 10q0 12 -12 12q-11 0 -15 6q-5 11 -19 91q-32 188 -72 246q-7 12 -7 28zM24 702v18h113q74 0 93.5 -1.5t19.5 -7.5q0 -9 14 -9q13 0 20 -19q9 -26 31 -84q26 -65 41 -158
q14 -79 16 -79t4 12q4 28 31 108q34 104 67 219q1 7 60 7q43 0 73 -1q96 -2 115.5 -3.5t27.5 -11.5q13 -15 13 -35q0 -14 -8 -19q-7 -4 -44.5 -71.5t-75.5 -145.5q-30 -62 -76 -190t-46 -150q0 -5 -3.5 -7.5t-14.5 -4.5t-30 -3t-50 -1q-9 0 -35 0.5t-43 0.5l-137 2l-1 53
q-2 60 -19 128q-34 137 -49.5 185t-52.5 137q-32 71 -37 79q-17 31 -17 52z" />
    <glyph glyph-name="W" unicode="W" horiz-adv-x="1043" 
d="M588 660l-7 33l-24 1q-17 0 -75 -2l-53 -2v-27q0 -27 -18 -79q-28 -76 -53 -187q-5 -25 -9 -29.5t-18 -4.5q-13 0 -16.5 3t-6.5 19q-4 24 -4 37q0 14 -14 44q-11 24 -15.5 42.5t-15.5 80.5q-10 57 -19.5 67t-57.5 10h-16h-70l16 -39q10 -29 63 -202q26 -86 40 -149
q21 -88 29 -101q11 -18 18 -43q8 -21 13 -22q4 0 13 3q17 5 71 5q38 0 45 1.5t7 11.5q0 19 8.5 57t18.5 64q16 46 30 106l17 70h18q15 0 21.5 -9t20.5 -50q9 -25 15 -33q12 -15 42 -122q27 -92 50 -98q14 -4 95 -4h81v17q0 18 13 74t27.5 109.5t34.5 124t24 86.5
q23 86 29 105q9 31 9 34q0 4 -73 4h-74l-4 -31q-4 -29 -18.5 -86.5t-24.5 -81.5q-8 -20 -17 -65q-1 -3 -2 -10q-11 -53 -17 -57q-3 -2 -7 -2q-1 0 -5 0.5t-7 0.5q-14 2 -18 4.5t-5 12.5q-2 14 -20 74t-26 78q-9 23 -12 38q-4 19 -13.5 42.5t-14.5 23.5q-8 0 -19 53zM437 727
q21 1 54.5 5t69.5 5h24q28 0 33.5 -6.5t10.5 -37.5q5 -27 24 -56q18 -27 23 -58q3 -22 13 -45t14 -42q8 -30 12 -30q1 0 18 50q4 14 11.5 36.5t10.5 34t6.5 31.5t5.5 45l4 49h250l-4 -37q-9 -70 -29 -103q-5 -10 -8 -30q-8 -41 -54 -199q-41 -143 -52 -212q-4 -28 -7 -40
l-4 -16h-136h-47q-90 0 -90 12q0 13 -7 25q-7 13 -11 31q-28 105 -47 149q-9 22 -15 22t-15 -42q-8 -35 -18 -53q-9 -18 -17 -64q-1 -8 -3 -18.5t-3 -15.5t-2 -12t-2 -9.5t-2.5 -6.5t-3 -5.5l-3.5 -3.5t-5 -2t-6.5 -0.5t-8.5 -0.5h-26q-53 0 -85 -9t-57 -9q-18 0 -22 3
t-7 19q-4 24 -18 52q-13 31 -39 131.5t-31 118.5q-6 19 -20 67t-25 83t-22 61q-15 39 -15 56q0 10 -2.5 13t-12.5 3t-12.5 3.5t-2.5 17.5v21h253l7 -16q7 -18 16 -67q24 -124 30 -124q4 0 7 19q1 9 25.5 80.5t24.5 87.5q0 20 9 20t9 9t32 10z" />
    <glyph glyph-name="X" unicode="X" horiz-adv-x="719" 
d="M274 625q-14 16 -29 16h-2q-3 0 -14 -1t-30 -1.5t-33 -1.5l-63 -3l30 -34q32 -34 59 -72q11 -13 42 -58.5t44 -61.5q21 -24 21 -51q0 -12 -7 -12t-14 -7q-17 -17 -77 -118q-8 -15 -19.5 -29.5t-27.5 -32t-22 -25.5l-14 -18l80 -3q16 -1 46 -1q36 0 38 2q3 2 26.5 55.5
t39.5 95.5q8 22 14 27.5t22 5.5q12 0 16.5 -3.5t9.5 -15.5q26 -75 41 -173l3 -22h73q65 0 93 -5l20 -3l-27 50q-70 131 -109 177q-21 25 -21 40q0 14 -9 18q-9 3 -9 38q0 22 6 27q6 3 6 13q0 12 22 37q25 32 30 41q11 19 13 21q25 29 44 59t19 40q0 2 -1 3q-4 4 -64 4
l-60 -1l-16 -25q-25 -45 -42 -80q-18 -39 -24.5 -47t-19.5 -8q-17 0 -25 9.5t-35 61.5q-26 52 -44 72zM446 686q7 8 41 8q26 0 45 -1q113 -5 122 -6l43 -4v-19q0 -20 -13 -27q-22 -12 -65 -96q-18 -33 -41 -59q-22 -25 -30 -48q-8 -22 -12 -26q-5 -5 -5 -12q0 -12 20 -39
q22 -29 51 -90q25 -51 55 -102.5t36 -55.5q4 -4 4 -39v-36q-46 0 -139.5 2t-140.5 2l-3 15l-9 36q-6 18 -6 38q0 11 -8.5 43t-11.5 32q-2 0 -18 -40q-10 -25 -32 -75q-11 -23 -16.5 -28t-18.5 -6q-20 0 -20 6q0 5 -31 5q-62 0 -170 -15l-31 -4v27q0 28 25 65q13 19 53 68.5
t59 80.5q36 57 40 63q14 22 14 23q0 3 -40.5 60.5t-60.5 84.5q-29 36 -54 64q-36 39 -45 52t-9 27v17l127 3q33 1 82 1q45 0 46 -3q1 -6 18 -6q10 0 18 -9t28 -44q32 -54 33 -54q3 0 14 26q22 54 56 95z" />
    <glyph glyph-name="Y" unicode="Y" horiz-adv-x="695" 
d="M583 679q-21 3 -67 5h-42l-34 -66q-64 -127 -64 -144q0 -10 -20 -10q-16 0 -24 10t-15 36q-5 22 -24.5 75.5t-28.5 73.5l-9 19h-148l33 -46q32 -48 89 -147l58 -101l-6 -57q-17 -142 -19 -189v-44h182l-2 130q-2 129 -7 131q-6 3 -6 13q0 24 20 44q12 11 55 73
q15 23 28.5 42.5t19.5 27.5t17.5 28.5t31.5 56.5q11 19 11 28q0 5 -29 11zM420 696q2 4 5.5 12t4.5 9.5t4.5 6t6.5 5.5t8 2t13 1q31 0 113 -6t89 -9q9 -5 9 -21q0 -30 -24 -80q-17 -35 -79.5 -130t-75.5 -107q-11 -10 -11 -53q0 -7 2 -81q3 -104 6 -157l1 -32h-268v95
q0 100 8 148l9 53l-23 45q-39 72 -47 84q-6 9 -14.5 22.5t-17 27.5t-11.5 19q-19 32 -25 38q-7 7 -7 12t-14 19q-36 40 -47 56.5t-11 31.5v21l64 -4q70 -4 138 -4h75l15 -49q15 -51 27 -80l12 -30l12 27q8 20 27.5 57.5t25.5 50.5z" />
    <glyph glyph-name="Z" unicode="Z" horiz-adv-x="614" 
d="M137 699q-6 1 -22 3t-21 3l-17 3v-174l23 3q127 15 164 15q10 0 12 -1q10 -5 10 -25q0 -17 -8 -30q-2 -3 -10 -19t-14 -26q-10 -19 -30 -49t-33 -57q-17 -37 -24 -41q-5 -4 -20.5 -33t-15.5 -36t-20 -27q-20 -21 -26.5 -42t-8.5 -70q-2 -30 -2 -34q0 -12 3 -16t13 -4
q11 0 56 8q57 9 222 9h168l1 53q2 62 2 66q0 6 -12 8t-59 4q-18 1 -64 1q-59 0 -82 -2q-36 -3 -53 -3q-22 0 -26.5 6.5t-4.5 28.5q0 14 2.5 18t12.5 4q9 0 17.5 9.5t25.5 40.5q67 113 91 141q13 16 30 45q17 30 36 51q10 11 14 19.5t8.5 27.5t6.5 27q5 16 12 49q0 3 0.5 6.5
t1 5.5t0.5 4q0 8 -10 12q-10 3 -178 10.5t-171 7.5zM54 742q0 14 9 14q2 0 16 -2q155 -22 265 -22q100 0 154 -7l57 -7l-3 -21q-9 -56 -40 -175q-7 -28 -15 -28q-3 0 -10.5 -9.5t-14 -20.5t-7.5 -12l-39 -56q-38 -56 -39 -57q-3 -3 -31 -51t-28 -51q0 -2 106 -4
q109 -2 131 -5l27 -4l-5 -39q-6 -64 -8 -102l-4 -63l-194 -4q-196 -4 -223 -10q-24 -6 -80 -6l-50 -1l4 69q1 15 1 38q0 30 -4 30q-5 0 -5 14q0 13 4.5 29t9.5 20q10 8 10 13q0 8 7 15q34 36 47 71q7 19 22 38q12 16 52.5 89t40.5 80h-2q-12 0 -49 -5q-18 -3 -94 -9l-44 -2
l4 36q4 40 4 118q0 53 1.5 68t7.5 15q9 0 9 16z" />
    <glyph glyph-name="a" unicode="a" horiz-adv-x="524" 
d="M339 466q-69 4 -93 7q-14 2 -17 2q-8 0 -12 -4.5t-11 -19.5q-15 -28 -47 -107t-32 -86q0 -9 -33 -77q-8 -17 -7 -18q2 -1 50 -8t54 -7q8 0 11 51l4 50h30q31 0 82 -7l53 -7v-99h82l-8 38q-14 66 -36 258l-4 31zM171 497l13 21l62 -3q23 -1 131 -7l69 -4l14 -114
q23 -185 36 -220q6 -15 6 -46v-29l-51 -3q-63 -4 -87 -7l-34 -4v113l-41 6l-42 5q-1 -17 -3.5 -50.5t-4.5 -49.5l-64 4q-73 4 -107 7l-44 3l4 28q4 27 24 70q19 37 43 100.5t34 87.5q28 65 28 68t14 24z" />
    <glyph glyph-name="b" unicode="b" horiz-adv-x="527" 
d="M221 433q0 10 14.5 59.5t14.5 58.5t12.5 51t18.5 55q5 10 5 22q0 7 -4 9.5t-16 2.5h-8q-28 -2 -95 -16q-19 -3 -19 -8t-15 -5h-15v-67q0 -71 -12 -160q-5 -40 -10 -87t-9.5 -101t-7.5 -79l-4 -35l76 3q161 7 201 23q15 6 43 24.5t31 24.5q1 2 15 16q15 13 22 29q3 7 3 14
q0 9 -17 42q-21 43 -35 55q-41 38 -134 46l-55 4v19zM170 726q13 4 67 4h28h71l2 -19q2 -19 -7 -51q-11 -35 -47 -171l-9 -34l27 -3q30 -4 44 -4q20 0 56.5 -17t50.5 -32q18 -23 35 -54q17 -33 17 -76q0 -44 -6 -54q-8 -16 -45 -49t-58 -43q-52 -25 -258 -29l-114 -2l4 34
q4 33 15 156t18 184q12 100 12 150q0 57 9 57q8 0 8 21q0 15 4 18t25 5q28 4 51 9z" />
    <glyph glyph-name="c" unicode="c" horiz-adv-x="468" 
d="M347 564q0 9 -27 9q-33 0 -83.5 -12t-82.5 -29q-45 -24 -70 -71q-20 -39 -20 -119q0 -33 1 -52q3 -74 7 -96t19 -39q13 -17 13 -20q0 -5 11.5 -17t22.5 -18q13 -7 79 -7q74 0 101 8q32 7 54 21q14 8 18 15t7 28q4 34 4 48v16h-71q-74 0 -93 9l-21 9l2 48q1 34 5 46.5
t20 35.5q27 39 41 46t65 7h58v107h-24q-24 0 -24 9t-6 9t-6 9zM400 608q9 0 16.5 -6t17.5 -6h14v-207h-61q-62 0 -73 -10q-13 -12 -34 -45t-21 -41q0 -13 23.5 -18t83.5 -5h78l-4 -81q-3 -66 -6 -84t-12 -18t-16 -9q-27 -27 -190 -27q-66 0 -90.5 3.5t-38 13.5t-32.5 41
q-32 51 -32 152q0 41 3 99q5 99 14 127.5t44 63.5q23 23 83 41t124 22q60 5 85 5q13 0 13 -5q0 -6 11 -6z" />
    <glyph glyph-name="d" unicode="d" horiz-adv-x="662" 
d="M585 659q-3 3 -82 11.5t-89 8.5q-8 0 -8 -30q0 -3 2 -73q2 -68 2 -73q0 -22 -2 -26.5t-9 -4.5q-13 0 -13 -12q0 -13 -20 -13q-18 0 -28 13q-14 20 -68 20q-24 0 -40 -6q-42 -16 -58 -32q-5 -5 -33 -28q-32 -26 -55 -74q-21 -41 -21 -57q0 -15 12 -67q4 -18 33.5 -47
t60.5 -44q48 -21 89 -21q24 0 48 4q51 8 123 14q73 7 73 8q3 3 9.5 49.5t13.5 103t11 73.5q10 46 10 63q2 59 32 191q8 32 8 45zM364 628l-4 101l50 -4q56 -4 134 -12.5t87 -12.5t9 -17q0 -9 -1 -15q-2 -20 -13 -72t-16 -65q-5 -12 -14 -72t-9 -77q0 -22 -18 -100
q-2 -8 -11 -89q-7 -65 -13 -87q-4 -13 -10 -16.5t-27 -5.5q-25 -1 -119 -13q-90 -11 -133 -11q-46 0 -81 11q-61 19 -105 58q-27 24 -36.5 55t-9.5 96q0 40 2.5 55.5t13.5 36.5q15 30 23.5 41.5t40.5 41.5q74 71 162 71q27 0 57 -6q18 -3 27 -3t12 4q3 5 3 53q0 35 -1 54z
" />
    <glyph glyph-name="e" unicode="e" horiz-adv-x="501" 
d="M426 590q-11 11 -17 11q-3 0 -29 -8q-26 -7 -74 -11q-53 -4 -101 -16q-51 -11 -75 -11h-24v-34q0 -35 -7 -72q-3 -19 -3 -30t4 -15q6 -6 6 -25q0 -20 -11 -20t-15.5 -23t-9.5 -104q-2 -48 -2 -55q0 -30 8.5 -37t42.5 -12q187 -28 264 -28l6 1q2 2 6.5 41.5t4.5 58.5
q0 8 -1 9q-3 3 -33 3q-34 0 -104 -5l-61 -5v32q0 37 6 55l6 22h104l8 26q6 21 6 30q0 11 -9.5 14.5t-37.5 3.5h-44l-11 30q-11 31 -11 52v22l97 -2q89 -2 110 -7q6 -2 7 -2q6 0 6 49q0 50 -12 62zM270 623q25 2 60 8t75 6h21q38 0 45.5 -14t7.5 -80v-16v-92l-45 4
q-126 9 -144 9q-17 0 -17 -4q0 -10 26 -12q43 -4 55 -5q22 -2 26 -5t4 -16q0 -16 -3 -31.5t-8.5 -34.5t-7.5 -33l-7 -38q-18 1 -54.5 3.5t-55.5 4.5v-15q0 -10 3 -12t17 1q25 5 91 5q68 -1 79 -8q11 -8 11 -29q0 -14 -7 -68q-11 -84 -14 -90q-2 -3 -22 -3t-33 1
q-191 13 -249 21q-69 8 -81 15q-19 11 -19 54q0 12 4 84q8 127 19 194q12 73 16 124l3 45h28q24 0 78 12q52 12 98 15z" />
    <glyph glyph-name="f" unicode="f" horiz-adv-x="374" 
d="M252 676q-28 8 -85 8q-31 0 -54 -3q-27 -3 -41 -51q-6 -21 -8 -263q-1 -59 -1 -139q0 -106 8 -106t8 -12q0 -8 7.5 -10t39.5 -2h46l-2 88q-4 87 -9 105q-5 15 -9 62l-4 44q18 -1 54.5 -3.5t54.5 -4.5v81q-22 -1 -65.5 -3t-65.5 -3v17q0 11 4 34t10 49t7 34l4 22h42
q57 0 107 -15q6 -2 8 2t2 20q0 23 -9.5 31t-48.5 18zM73 719q26 7 78 7h21h16q90 0 139 -24l25 -13v-134h-24q-27 0 -78 12q-37 8 -53 8l-5 -1q-5 -5 -7 -34l-3 -30l58 2l58 3v-168h-50q-50 0 -50 -5q0 -6 5 -19q6 -22 9 -140l5 -126h-92q-92 0 -99 8q-4 5 -4 190
q0 375 8 407q13 50 43 57z" />
    <glyph glyph-name="g" unicode="g" horiz-adv-x="532" 
d="M289 485q-38 8 -50 8q-18 0 -52 -17q-46 -22 -71 -55t-38 -87q-6 -27 -6 -47q0 -50 43 -84q27 -20 69 -25q22 -2 26 -2q20 0 49 14q31 15 49 15q22 0 30 -25.5t11 -92.5q1 -18 1 -44q0 -36 -7 -40q-8 -5 -70 -5q-88 0 -147 36l-18 12l-15 -34q-15 -32 -15 -36q0 -1 11 -5
t35 -12t42 -15q23 -9 72 -15.5t80 -6.5q18 0 19 3q2 7 10 7q6 0 49 41.5t43 47.5q0 5 15 22q12 15 12 29q0 10 -1 18q-4 30 -9 50q-7 25 -16 102.5t-11 128.5q-4 65 -9 70q-7 7 -32 7t-50 16q-22 15 -49 21zM184 531q15 5 59 5q45 0 62 -5q123 -34 150 -48q9 -4 11 -16
t4 -60q5 -139 26 -221q8 -31 12 -98q2 -42 2 -45q0 -21 -15 -41q-19 -26 -62.5 -68.5t-50.5 -42.5q-8 0 -8 -7q0 -4 -44 -4q-102 0 -157 10q-53 11 -130 47q-19 9 -19 28q0 22 27 80q18 39 24.5 48t18.5 10h7q17 0 62 -28q53 -34 114 -36q21 0 26.5 2t8.5 12q1 2 1 9
q0 20 -6 44q-7 35 -18 35h-2q-33 -6 -88 -6q-20 0 -48 2q-32 3 -43.5 7t-31.5 21q-28 23 -37 47t-9 77q0 193 154 242z" />
    <glyph glyph-name="h" unicode="h" horiz-adv-x="463" 
d="M158 699q-20 5 -55 8l-41 4l4 -23q4 -26 8 -289q5 -265 9 -269q1 -1 6 -1q12 0 25 4q26 7 42 7q14 0 14 8q0 1 -2 17q-33 197 -35 242l-1 32l36 7q40 8 77 8h41l15 -25q23 -39 28.5 -68.5t6.5 -112.5v-102h66v122q0 119 -10 162q-7 29 -12 37.5t-25 20.5q-29 18 -56 24.5
t-80 10.5l-62 4l4 63q4 65 7 84q1 6 1 13q0 9 -11 12zM25 713l4 39l75 -3q71 -3 91 -9t22 -23v-9q0 -39 -14 -128l-3 -19h57q49 0 76.5 -7t59.5 -27q18 -11 25.5 -19t9.5 -19q15 -76 15 -241v-144h-148l2 103v26q0 65 -6.5 93t-28.5 64q-13 21 -26 21q-5 0 -17 -3.5
t-21 -4.5q-13 -2 -17 -4t-4 -8t1 -10q30 -148 37 -239l4 -44h-22q-29 0 -70 -11q-43 -12 -67 -12h-20v215q0 218 -9 299q-7 68 -7 100q0 17 1 24z" />
    <glyph glyph-name="i" unicode="i" horiz-adv-x="251" 
d="M172 516q-9 3 -21 3q-33 0 -59 -16l-28 -16v-394h43q43 0 54 7q6 5 8.5 41.5t5.5 168.5q3 108 3 151q0 53 -6 55zM63 548q22 12 76 13q51 0 73 -4q8 -2 11 -3t5 -4t2 -8q0 -1 -2 -19q-2 -20 -10 -235q-7 -212 -9 -217q-3 -12 -21 -15.5t-93 -7.5l-72 -3l1 240
q1 240 9 240q7 0 7 6q0 4 23 17zM139 663q-13 10 -16 10t-13 -10q-9 -9 -9 -14t20 -9q4 -1 11 -1q17 0 17 9q0 8 -10 15zM76 708q12 12 28 12q11 0 19 -1q35 -4 52 -14q14 -8 16.5 -14.5t2.5 -33.5q0 -43 -9 -52t-51 -9q-49 0 -65.5 10t-16.5 39q0 39 24 63z" />
    <glyph glyph-name="j" unicode="j" horiz-adv-x="415" 
d="M322 501q-33 7 -45 7q-11 0 -18 -5q-5 -3 -7 -188q-2 -197 -7 -233q-7 -51 -20 -61.5t-64 -10.5q-57 0 -67 5q-6 3 -10 3q-13 0 -13 -37q0 -11 22.5 -14t101.5 -4h48q35 0 43 2.5t14 11.5q15 24 31 284q9 157 14 181q6 27 6 37t-5.5 14t-23.5 8zM221 540q0 9 52 9
q55 0 86 -7l34 -7v-51q-2 -57 -6 -77q-5 -24 -14 -172q-17 -282 -31 -294q-9 -9 -9 -15q0 -5 -132 -5q-135 0 -155 9l-22 9l4 46q4 56 7 80l3 33h24q25 0 27 -11q3 -11 27.5 -23.5t43.5 -12.5q17 0 26 10t15 44.5t8 88t2 152.5q0 185 4 185q6 0 6 9zM326 658q-12 9 -20 9
q-9 0 -15 -14q-4 -8 -4 -13q0 -7 27 -11q16 -2 17 -2q8 0 8 10q0 12 -13 21zM250 685l12 24h43q43 0 63 -13l20 -14l-3 -42q-2 -43 -7 -50q-4 -5 -27 -5q-22 0 -39 1q-56 2 -67 7q-7 4 -7 30q0 39 12 62z" />
    <glyph glyph-name="k" unicode="k" horiz-adv-x="487" 
d="M180 616l4 69h-54q-48 0 -60 -3q-3 -2 -3 -12q0 -3 2 -31q4 -35 4 -155q0 -170 -6 -211q-3 -19 -3 -54q0 -29 1 -41l4 -53q16 1 47.5 2t47.5 2l-4 48q-3 42 -12 80q-9 31 -9 49q0 13 3.5 15.5t17.5 2.5q22 0 25 -10q5 -15 48.5 -70.5t71.5 -84.5q20 -21 28.5 -27.5
t18.5 -6.5q6 0 32 7q11 3 1 14q-10 12 -15 12q-6 0 -70 66q-48 48 -57 61t-9 33q0 19 4 26t24 22q19 14 33.5 27.5t32.5 33.5t31 34l33 34l-26 10q-16 6 -34 6q-21 0 -21 -9q0 -6 -38 -46q-46 -50 -49 -56q-6 -10 -12.5 -13.5t-21.5 -3.5h-23l4 82q1 24 4.5 79.5t4.5 71.5z
M160 733q12 5 41 5l28 1l-3 -52q-9 -124 -9 -134l-4 -81l24 26q18 19 32 39q16 22 53 22q33 0 98 -20q33 -11 39 -15.5t6 -17.5q0 -19 -37 -54q-29 -28 -69 -72q-30 -33 -53 -50l-20 -15l61 -61q63 -61 68 -61q9 0 12 -12q3 -11 7 -11q7 0 15.5 -20t8.5 -34t-7 -18.5
t-36 -9.5q-41 -7 -47 -13t-36 -6q-27 0 -27 5q0 6 -42 50q-43 43 -51 55q-6 9 -6 1l1 -16q0 -4 7 -51l3 -25l-93 -4q-64 -2 -78 -2q-18 0 -18 1q-3 3 -3 79q0 110 5 252q2 66 2 89q0 59 -5 106q-4 32 -4 70q0 17 1 22l4 26h60q58 0 72 6z" />
    <glyph glyph-name="l" unicode="l" horiz-adv-x="254" 
d="M98 718q-1 0 -10 -1q-6 -1 -7.5 -26.5t-1.5 -116.5q0 -97 -7.5 -199t-8.5 -176l-1 -115l58 -2q8 0 18.5 -0.5t13.5 -0.5q21 0 25.5 6t8.5 31q1 6 1 13q0 10 -13 15q-15 5 -27 25q-11 17 -11 70v26q0 72 6 128q2 20 10 138t13 146q4 19 4 30q0 9 -71 9zM43 758q25 3 51 3
q25 0 73 -3l63 -3v-19q0 -19 -5 -24q-8 -9 -16 -62t-11 -119q-3 -62 -10 -110t-9 -106q-1 -18 -1 -46q0 -42 7.5 -59t28.5 -24l18 -6l-3 -62q-4 -63 -9 -68q-4 -4 -51.5 -7t-89.5 -3q-35 0 -41 2l-15 3v159q0 157 7 197q8 45 8 181q0 129 -7 131q-8 4 -8 23q0 13 3 16.5
t17 5.5z" />
    <glyph glyph-name="m" unicode="m" horiz-adv-x="660" 
d="M225 450q-24 44 -34 44h-1q-6 -1 -68 -3l-58 -2l4 -49q4 -44 4 -154v-44l-2 -149h23q20 0 42 -6l20 -6l-4 55q-3 44 -5 134l-1 80l25 2h8q41 0 41 -19q0 -9 6 -9q4 0 8 -11q2 -7 15 -22q7 -8 20 -28q7 -12 15.5 -14t48.5 -2q43 0 54 6.5t28 40.5q12 24 19 33q11 15 15 28
q4 10 44 10h41v-34q-1 -42 -6 -125.5t-8 -96.5l-5 -16h85v189q0 130 -1.5 160t-8.5 32q-20 3 -91 5l-80 2l-14 -36q-13 -36 -19 -44q-3 -5 -22 -43q-10 -23 -16 -28.5t-18 -5.5q-14 0 -25 10t-39 48q-8 10 -40 68zM84 533q68 2 109 2l47 2l21 -43q18 -38 41 -67l20 -26
l13 20q15 21 24 49q12 36 16 45l7 17l48 -4q71 -5 127 -8l82 -6q1 0 1 -53q0 -144 -4 -275l-4 -148l-21 4q-19 3 -82 7l-61 3v27q0 27 9 72q10 50 10 119q0 34 -4 34l-1 -1q-2 -2 -5.5 -10.5t-7.5 -15.5t-7 -7q-5 0 -9 -13q-4 -14 -16 -32l-13 -18l-83 -3q-18 -1 -46 -1
q-60 0 -67 20q-3 7 -15.5 22.5t-15.5 21.5l-2 2q-4 0 -4 -33q0 -8 2 -74l4 -117h-44q-106 0 -106 16q0 8 -9 8q-8 0 -8 82v65q0 161 -3 230l-4 85z" />
    <glyph glyph-name="n" unicode="n" horiz-adv-x="541" 
d="M259 544q0 8 -13.5 9.5t-81.5 1.5h-94l-4 -37q-2 -30 -2 -144q0 -266 5 -271l3 -1h5.5h7.5t15.5 0.5t17.5 0.5l46 3v74q0 65 4 169l3 93h19q19 0 34 -22t49 -99q40 -87 51 -100q12 -16 28 -40l23 -32q17 -1 51.5 -2t51.5 -2v386h-97l4 -42q7 -88 8 -98l4 -55h-22
q-13 0 -17.5 2t-4.5 9q0 12 -5 15q-6 4 -9 19q-4 18 -23 57t-37 65q-20 29 -20 41zM25 566l4 30h126q129 0 136 -3q9 -4 9 -15t21 -43l21 -30v68h180v-236l-1 -235q-30 0 -89.5 -1t-89.5 -1l-21 30q-6 9 -37 54q-12 18 -35 66.5t-29 66.5q-1 4 -2.5 6.5t-3 3.5t-2.5 0
q-2 -2 -6 -133l-4 -128l-51 -4q-55 -4 -69 -10q-16 -6 -30 -6h-4q-12 1 -15.5 6.5t-6.5 25.5q-4 28 -4 276q0 185 3 212z" />
    <glyph glyph-name="o" unicode="o" horiz-adv-x="535" 
d="M381 296q7 16 27 16q14 0 16.5 -3t2.5 -16q-1 -34 -21 -73t-43 -50q-13 -6 -62 -6q-48 0 -75 6q-35 8 -56.5 32.5t-21.5 58.5q0 20 2.5 23.5t18.5 3.5q21 0 21 -8q0 -20 36.5 -44.5t66.5 -24.5q16 0 25 5t27 22q28 26 28 34q0 6 8 24zM173 371q-1 11 -1 26q0 14 6.5 18
t28.5 4q25 0 30.5 -7.5t5.5 -43.5v-33q-12 1 -34.5 2t-33.5 2zM328 394l-4 36h21q25 0 40 -3q13 -3 15.5 -7t2.5 -23q0 -30 -8 -40t-31 -10q-25 0 -29 6q-3 5 -7 41zM296 537q0 5 -16 5q-30 0 -64 -12q-37 -13 -83.5 -44.5t-57.5 -50.5q-10 -19 -10 -66q0 -34 1 -58
q1 -78 5.5 -98t26.5 -61q8 -15 37 -39q47 -39 106 -39q21 0 38 4q26 5 38 8.5t31 12t36 14.5q49 18 63.5 33.5t20.5 55.5q6 37 6 134q0 60 -2 79t-10 36q-11 24 -40.5 43.5t-58.5 23.5q-23 2 -29 8q-3 5 -21 5q-17 0 -17 6zM186 573q26 9 68 9h19q100 -5 100 -16q0 -5 18 -5
q20 0 46 -14q35 -18 49 -35.5t20 -50.5t8 -110q1 -23 1 -65q0 -62 -5 -105q-5 -40 -9 -52t-16 -22q-13 -11 -46 -27.5t-44 -16.5q-16 -4 -31 -12q-18 -10 -39 -12q-17 0 -17 -6q0 -4 -37 -4q-50 0 -114.5 6t-70.5 12q-21 21 -48 99q-11 32 -13 170l-2 138l15 21
q17 25 59.5 53t88.5 45z" />
    <glyph glyph-name="p" unicode="p" horiz-adv-x="520" 
d="M318 519q-40 5 -120 5q-58 0 -80 -3l-15 -2l-4 -147q-8 -285 -27 -364l-5 -22l44 -1l45 -2l-5 120l-4 121l35 -3q25 -3 46 -3q62 0 130 41q28 17 34 17q5 0 19 14q20 18 32.5 48.5t12.5 62.5q0 21 -3.5 30.5t-15.5 23.5q-47 54 -119 64zM89 552v15h112q112 0 152 -7
q78 -11 123 -67q13 -16 16 -27t5 -39q0 -3 0.5 -10t0.5 -10q0 -60 -18 -107.5t-46 -60.5q-16 -7 -19 -10q-11 -13 -79 -39q-36 -14 -90 -14h-54l3 -120l2 -119l-63 3q-72 4 -87 4h-23v35q0 31 6 57q7 31 16 146.5t12 219.5l3 135h15q8 0 10.5 3t2.5 12z" />
    <glyph glyph-name="q" unicode="q" horiz-adv-x="509" 
d="M335 443q-54 29 -101 29q-14 0 -41 -14t-40 -27q-11 -11 -34.5 -57t-38.5 -84l-17 -42l14 -29q41 -85 126 -85q32 0 47.5 6.5t42.5 31.5q28 26 53 27h23l-4 -125q-4 -130 -7 -164l-4 -37h35q32 0 42 5q17 10 17 195q0 57 -3 111q-7 119 -7 182v57l-39 4q-41 4 -64 16z
M160 502q17 9 48 9q21 0 35 -1q136 -6 145 -15q5 -5 48 -5h42l6 -165q5 -173 5 -262q0 -212 -20 -224q-9 -6 -83 -10l-72 -5v69q0 47 5.5 77.5t5.5 63.5v21q-3 63 -7 63q-1 0 -5 -4q-12 -13 -33.5 -17t-75.5 -4q-70 0 -92 12q-50 25 -74 74q-14 27 -14 50q0 16 1 28
q3 45 20 84q35 77 58 110t57 51z" />
    <glyph glyph-name="r" unicode="r" horiz-adv-x="431" 
d="M139 454q1 17 4 50.5t4 50.5h-89v-457h71q69 0 69 8v1q-1 1 -1 2q-15 49 -15 167q0 101 5 111q3 7 22 11q12 2 29 12q14 9 67 9h55v112h-41q-41 0 -45 6q-3 6 -25 6q-23 0 -30 -7t-7 -17q0 -8 -12 -22q-11 -11 -13 -26q-1 -15 -25 -16zM40 582v14h74q74 0 74 -6
q0 -5 59 -5q60 0 63 -6q4 -6 51 -6h48l-3 -40q-5 -58 -5 -98v-58h-58q-60 0 -63 -5q-7 -7 -30 -13l-26 -7v-74q0 -76 9 -114q7 -35 7 -65v-7l-2 -32l-108 -2l-108 -1v255q0 168 1.5 211.5t7.5 43.5q9 0 9 15z" />
    <glyph glyph-name="s" unicode="s" horiz-adv-x="466" 
d="M246 534q-31 9 -39 9q-14 0 -30 -8.5t-58 -36.5q-17 -11 -31.5 -31t-19.5 -38q-2 -6 -2 -20q0 -43 20 -70l14 -18h70q71 -1 89 -12l20 -10q-1 -18 -2 -54.5t-2 -54.5l-23 -12q-22 -11 -100 -11h-76q0 -8 1.5 -24t2.5 -24l71 -2h17q52 0 72 6q24 10 71.5 33t52.5 28
q21 21 32 65q4 15 4 23q0 10 -12 26q-11 15 -20 19t-39 9q-63 15 -104 20q-22 3 -34 9q-8 5 -8 47q0 25 5 33q11 19 75 19q37 0 60 -8q15 -6 20 -6q4 0 7 10q10 35 12 41q6 20 6 24t-9 7q-11 3 -48 3q-36 0 -65 9zM127 568q25 15 51 15q3 0 14 -0.5t18 -0.5q156 -7 195 -23
q14 -6 17.5 -11t3.5 -19q0 -23 -11 -43q-12 -23 -19 -64l-8 -40l-34 3q-33 3 -42 8q-22 15 -50 15q-13 0 -18 -2q-15 -4 -15 -9t32 -10q74 -9 80 -16q4 -6 24 -6q35 0 64 -32q16 -17 16 -37q0 -3 -2 -33q-3 -52 -20 -86q-14 -28 -31.5 -40t-85.5 -41l-51 -22l-107 2
q-107 2 -113 8q-4 4 -4 30q0 8 2 44l5 68l23 2h4q17 0 37 -8q25 -13 59 -13q30 0 52.5 10.5t22.5 29.5q0 17 -17.5 23.5t-62.5 6.5h-21l-65 -1l-19 20q-13 13 -17.5 23.5t-7.5 36.5q-2 26 -2 48q0 6 0.5 17t0.5 16q6 68 57 101l22.5 15z" />
    <glyph glyph-name="t" unicode="t" horiz-adv-x="420" 
d="M259 634l4 28h-84v-101h-113v-23q0 -21 9.5 -26t52.5 -5h43l4 -27q4 -30 11 -203q7 -174 10 -178q2 -2 14 -2q14 0 30 3l40 6l-3 39q-11 119 -19 281l-3 59q17 -1 51.5 -2t51.5 -2l-4 17q-3 13 -3 22q0 5 -51 5h-52l4 41q4 44 7 68zM137 603v100h167l-2 -57
q-2 -56 -7 -69q-1 -2 -1 -4q0 -6 47 -6h49l4 -28q4 -30 4 -66v-38l-102 6l4 -25q3 -22 9 -116q12 -149 13 -159q4 -44 4 -54q0 -17 -3 -18q-5 -4 -58 -11t-82 -7q-19 0 -23.5 3t-6.5 17q-2 17 -9 170t-7 191v34h-38q-36 0 -56 4l-19 4q0 21 2 62.5t2 62.5q18 1 54.5 2
t54.5 2z" />
    <glyph glyph-name="u" unicode="u" horiz-adv-x="492" 
d="M422 503q-3 17 -7 19.5t-25 2.5h-29v-38q0 -38 -24 -105q-31 -92 -43 -107.5t-50 -15.5q-37 0 -55 15q-20 18 -31 40q-11 21 -11 49q0 5 2 45q3 65 8 88l4 18l-38 -4q-38 -4 -39 -5q-2 -2 -11 -77q-6 -48 -6 -78q0 -39 13 -85q18 -66 70.5 -113t104.5 -47q25 0 44 12
q51 31 84.5 100t33.5 139q0 18 -1 27q-2 18 -2 22q0 14 5 14q7 0 7 38q0 16 -4 46zM315 524l-3 44l77 -2q78 -2 80 -5q1 -1 1 -22q0 -49 -5 -146t-10 -130q-8 -65 -11 -76t-12 -11q-6 0 -12 -7.5t-11.5 -18.5t-7.5 -14q-38 -44 -66 -61q-21 -12 -51 -12q-4 0 -15.5 0.5
t-19.5 0.5q-57 1 -87 13.5t-62 47.5q-40 45 -58 95t-18 122q0 46 8 115q10 85 17 93q4 5 14 5h9h10q32 0 70 3l56 5l-3 -41q-6 -66 -10 -99q-4 -32 -4 -48q0 -14 11 -32q26 -41 43 -41q2 0 3 1q15 10 49 116q19 56 19 85q0 3 -0.5 9.5t-0.5 10.5z" />
    <glyph glyph-name="v" unicode="v" horiz-adv-x="575" 
d="M243 456l-7 16h-76q-76 0 -76 -4t22 -41q15 -24 39.5 -82t33.5 -89q10 -35 24 -72.5t18 -37.5q6 0 6 -18v-18h74h22q46 0 54 9t21 64q16 66 63 188q19 49 21 56q1 4 3.5 10.5t4.5 11t3 6.5q2 4 2 5q0 6 -27 9q-24 2 -42 2h-12l-24 -2l-10 -53q-23 -118 -46 -174
q-7 -18 -12 -23t-18 -7q-12 -1 -15 1t-3 12q0 15 -5 18q-5 4 -9 34q-5 39 -12 73q-10 46 -10 66q0 24 -7 40zM529 404q-1 -4 -12 -30.5t-12 -30.5q0 -8 -14 -38q-34 -77 -59 -185q-9 -40 -17 -46q-10 -5 -105 -5q-97 0 -111 -4q-9 -3 -11.5 0t-2.5 17q0 20 -7 27
q-6 6 -32 80q-30 88 -44.5 122t-40.5 80q-33 58 -35 96l-2 38l20 1q19 2 21 -5q3 -8 109 -8q77 0 91.5 -1.5t14.5 -9.5q0 -11 6 -15q5 -3 7 -38q0 -24 5.5 -64t11.5 -40q10 0 29 103q10 50 10 52q2 9 12 11t61 2q76 0 101 -6q21 -5 25.5 -8.5t4.5 -18.5q0 -23 -12 -45
q-12 -24 -12 -31z" />
    <glyph glyph-name="w" unicode="w" horiz-adv-x="795" 
d="M216 427q1 26 1 60q0 28 -2 36t-7 8h-2q-3 0 -13.5 -1.5t-26.5 -3t-29 -3.5l-56 -7l4 -23q4 -28 25 -92q42 -136 51 -181q19 -101 34 -101h1q8 3 44 3q28 0 33.5 3t12.5 20q21 47 48 158q14 48 16 50q6 7 9 14q3 10 23 10q17 0 25 -13t33 -82q21 -60 29 -74
q11 -21 19 -48q6 -19 10.5 -22.5t24.5 -3.5q23 0 73 -4l45 -4v18q0 14 13 58t14 51q2 12 21 81.5t21 87.5q4 30 7 49l3 19h-131l-3 -31q-5 -46 -8 -85l-5 -53h-46l-19 45q-23 53 -38 73q-18 27 -18 33q0 7 -13 24q-9 13 -18 15t-52 2h-59l-7 -24q-4 -13 -8.5 -22.5t-7 -17.5
t-4.5 -25q-4 -28 -16 -63q-8 -27 -12.5 -32t-19.5 -5h-21zM375 268q0 -6 -18 -64t-18 -65q0 -12 -12 -34l-12 -23l-46 -4q-60 -5 -82 -7l-38 -3v18q0 18 -4 18q-6 0 -31 104q-15 62 -21 83q-36 120 -50 155q-6 13 -12.5 49t-6.5 53q0 7 1 7l13 1q13 2 37.5 5t47.5 5
q70 8 117 12h8q10 0 12 -3.5t2 -17.5q1 -16 2 -17t4 5q4 7 21 8.5t80 1.5q36 0 51.5 -0.5t30 -1.5t19.5 -6.5t8.5 -10.5t8.5 -18q11 -23 30 -54l22 -34l3 31q4 35 7 51l5 19h219l-3 -25q-18 -134 -42 -212q-12 -40 -21 -83q-9 -42 -15 -58q-9 -25 -9 -50v-24l-61 5
q-19 2 -114 8l-53 3l-4 19q-4 20 -19 50q-21 46 -32 78q-15 41 -21 41q-4 0 -4 -15z" />
    <glyph glyph-name="x" unicode="x" horiz-adv-x="627" 
d="M485 456l20 28h-82l-44 -48q-9 -10 -25 -27q-35 -37 -44.5 -46t-18.5 -9q-1 0 -5 0.5t-6 0.5q-15 2 -22 7.5t-19 29.5q-15 28 -25 57q-5 16 -10.5 19.5t-33.5 4.5q-12 1 -30 1q-17 0 -17 -7q0 -9 33 -52q42 -56 48 -56q3 0 3 -15q0 -42 -9 -49q-5 -4 -18.5 -22.5
t-13.5 -22.5q0 -5 -35 -51q-48 -64 -48 -73q0 -4 64 -4h64l10 23q43 105 43 106q8 23 12.5 27t20.5 4q22 0 26 -11q3 -9 36 -52q30 -37 39 -59l7 -20h124l-8 14q-8 11 -22 19q-13 6 -13 10t-7 11q-3 3 -26 36t-28 37q-33 30 -33 59q0 16 9.5 31.5t37.5 44.5q24 24 46 54z
M202 519q0 6 16 6q21 0 29 -8t8 -18q0 -8 9.5 -27.5t20.5 -33.5l10 -13l29 33q43 50 55 57q15 10 52 10h31q71 0 101 -4q20 -3 23.5 -7t5.5 -23q0 -3 0.5 -7t0.5 -5q0 -8 -3 -10.5t-10 -2.5q-12 0 -32.5 -20t-36.5 -46q-14 -23 -41 -47l-27 -23l14 -17q19 -21 36 -47
q16 -23 45 -54q37 -40 58 -69q9 -13 9 -35v-23l-43 5q-45 5 -82 5q-36 0 -66 -5q-14 -2 -18 -2q-14 0 -22 7.5t-16 25.5q-7 17 -29 47.5t-27 30.5q-4 0 -17 -34q-4 -9 -12.5 -30.5t-10.5 -28.5l-10 -25h-228v29q0 28 9 36q9 7 12 19q2 8 14.5 26.5t27 38.5t16.5 24
q1 1 14.5 18t13.5 26q0 8 6 8q5 0 9 15q0 1 0.5 2.5t0.5 2.5q0 13 -26 46q-28 38 -44 55q-17 18 -20 32q-3 13 -19 13q-9 0 -11.5 3.5t-2.5 17.5v20h89q89 0 89 6z" />
    <glyph glyph-name="y" unicode="y" horiz-adv-x="686" 
d="M257 447q-1 2 -3 5q-10 21 -19 24l-12 1q-8 0 -64 -7l-52 -7l18 -21q14 -15 39 -56t34 -53q28 -36 57 -67q17 -17 22 -27t7 -30q0 -3 0.5 -7t0.5 -6q0 -16 -7.5 -27.5t-34.5 -40.5q-31 -33 -65.5 -70.5t-50.5 -55t-19 -20.5q-1 -1 -1 -2q0 -7 39 -7q61 0 78 11
q28 18 83 73.5t92 103.5q4 5 10.5 13.5t8.5 10.5q11 14 32.5 44t32.5 44q23 26 77 120l37 64l-53 4q-54 4 -67 7h-3l-1 1q-7 0 -15 -12t-28 -53q-36 -74 -51 -95t-32 -21q-14 1 -21 12t-38 80q-12 26 -31 67zM201 229q-2 0 -7 15t-9 15q-7 0 -25 31q-54 90 -68 107
q-31 36 -40.5 52.5t-9.5 33.5v23l70 4q70 4 93 9q31 5 48 6h24l27 -57q30 -65 37 -82l10 -24l32 65q32 68 32 77t17 9q3 0 41 -2q18 -1 63.5 -4t53.5 -3q58 -4 67 -10q7 -6 7 -28q0 -23 -8 -26q-10 -5 -39 -58q-69 -122 -179 -259t-171 -176q-15 -9 -35.5 -12t-96.5 -4
l-111 -3v29q0 29 10 36q9 7 57 55t77 80q28 29 36 46q8 18 11 20q1 1 1 4q0 7 -5.5 19t-9.5 12z" />
    <glyph glyph-name="z" unicode="z" horiz-adv-x="444" 
d="M345 478q0 6 -136 6h-136v-73l90 2l90 3l2 -19q1 -19 -13 -35q-14 -14 -27 -38q-13 -21 -29 -40q-19 -21 -19 -23q0 -4 -21.5 -36t-24.5 -32q-4 0 -20 -14q-17 -14 -17 -38v-24l85 3q86 4 102 9q15 5 63 5h47l-4 20q-1 4 -2 10t-2 10t-1 6q-3 8 -81 9l-79 1l-2 25v9
q0 19 32 65q23 33 63 106.5t40 82.5zM43 518q0 3 2 4.5t9.5 2.5t20.5 1.5t37 0.5q54 0 95 -1q178 -2 194 -7q9 -4 9 -17q0 -15 -6 -31.5t-12 -16.5q-5 0 -5 -9t-35.5 -76.5t-58.5 -101.5l-24 -35q24 0 70 -2t70 -2l7 -29q6 -24 6 -68v-38h-49q-48 0 -66 -6q-28 -6 -141 -9
l-123 -4v131l22 16q20 15 29 25.5t25 36.5q14 24 34 48q23 26 23 31q0 6 -14.5 7.5t-59.5 1.5h-78l4 67q4 66 10 68q5 2 5 12z" />
    <glyph glyph-name="nbsp" unicode="&#xa0;" 
 />
    <glyph glyph-name="Aring" unicode="&#xc5;" horiz-adv-x="722" 
d="M381 414q-4 35 -10 48q-5 10 -6 10q-3 0 -14 -37q-13 -45 -13 -47q0 -5 24 -5h23zM319 503q2 11 8 13.5t36 2.5t36.5 -2.5t12.5 -16.5q9 -24 12 -65q4 -45 13 -55q8 -6 8 -27v-19l-55 4q-45 3 -80 3h-25v23q0 20 15 72q18 55 19 67zM481 427q-3 16 -15 66t-15 73
q-1 7 -1.5 12.5t-1.5 9.5t-1.5 5.5t-1.5 1.5q-4 -4 -91 -11l-87 -7l-9 -30q-2 -8 -10 -37t-12 -44q-14 -48 -54.5 -147.5t-46.5 -116.5q-26 -73 -39 -95q-13 -24 -13 -28t65 -4h65l3 19q4 17 9 71t6 61l3 30h32q7 0 24 -0.5t41.5 -1t41.5 -0.5l75 -1l8 -46q7 -46 11 -77
q2 -20 5.5 -26.5t14.5 -10.5q12 -5 28 -5q8 0 11 1q18 3 62 7q37 4 37 9q0 3 -3 8q-5 9 -11 15q-4 3 -37.5 61t-33.5 63q0 4 -12 18t-12 25t-5 24q-22 58 -30 108zM421 642q20 13 41 13q18 0 24 -11q6 -14 6 -34q0 -37 58 -254q9 -35 16 -44q2 -3 30.5 -56.5t31.5 -56.5
q1 -1 33 -46t33 -46q6 -4 6 -26v-23l-64 -3q-5 0 -117 -8q-12 -1 -31 -1q-30 0 -42.5 6.5t-14.5 23.5q-1 5 -6 33.5t-8 47.5l-11 60h-131l-7 -63q-2 -20 -6 -54.5t-5 -41.5l-4 -32l-39 4q-32 3 -114 3h-76v21q0 21 13 49q49 106 61 144q8 23 15 38.5t15 38.5t15 39.5
t14 34.5q9 27 15 35q5 7 20 56.5t25 92.5l11 48h86h36q52 0 71 12zM383 799q-5 4 -21 4q-22 0 -32 -6t-24.5 -29.5t-14.5 -34.5t19.5 -20t41.5 -9h5q26 2 36 22q9 15 9 23q0 4 -5 21q-7 26 -14 29zM295 838q20 18 53 19q30 0 38 -9q7 -9 17 -9q30 0 30 -17q0 -7 10 -23
q7 -10 7 -28q0 -14 -1 -24q-5 -51 -27 -75q-8 -10 -67 -10q-69 0 -87.5 12.5t-18.5 58.5q0 66 46 105z" />
    <glyph glyph-name="AE" unicode="&#xc6;" horiz-adv-x="848" 
d="M417 484q8 27 8 38q0 4 -1 4q-4 0 -19 -32q-18 -39 -18 -42q0 -4 8 -4h2q9 0 20 36zM359 521l23 52h89l-3 -60q-4 -61 -10 -67q-7 -7 -7 -23v-16h-136v19q0 18 10 30q14 16 34 65zM771 665v44l-16 -1q-23 0 -61 -11q-40 -12 -111 -12q-8 0 -29 0.5t-35 0.5l-132 2
l-14 -26q-3 -7 -18.5 -41t-24.5 -54q-119 -259 -219 -447q-27 -50 -27 -57q0 -4 48 -8q10 -1 26 -1q22 0 29.5 6t8.5 24q0 12 14 42q41 87 57 141q13 46 24 55.5t55 13.5q67 5 89 5h40v-296h142q142 0 142 5q1 12 10 64t12 58q3 7 0.5 8.5t-13.5 -0.5q-20 -4 -96 -8l-80 -4
l3 38q1 31 10 82l8 43l48 -4q50 -4 65 -7l16 -3v102h-178v22q0 24 12 57q11 31 11 65v29l56 -3q16 -1 48 -1q30 0 38 1q27 3 34.5 16.5t7.5 59.5zM706 749q42 7 81 7q25 0 28 -4l1 -2v-3v-5q0 -28 -4.5 -95.5t-8.5 -87.5l-3 -23l-85 4l-84 5l-4 -32q-3 -29 -8 -43
q-1 -2 -1 -4q0 -6 28 -6q29 0 52 1l82 1q0 -31 2 -93.5t2 -93.5q-23 1 -68.5 3t-68.5 3v-22q0 -23 -4 -33q-1 -1 -1 -3q0 -5 24 -5q4 0 66 2l94 4l-3 -43q-1 -33 -12 -103q-10 -66 -10 -67q0 -7 -184 -7h-184v295l-33 -3q-54 -5 -64.5 -9t-17.5 -24l-5 -15t-6 -19.5
t-4 -14.5q-17 -55 -51 -126q-14 -30 -14 -39t-7 -25l-8 -16l-86 4q-86 4 -88 9q-1 6 -13 6t-12 15q0 24 27 74q35 67 124.5 249t109.5 228q57 132 71 134l159 2q151 1 154 7q3 5 37 13z" />
    <glyph glyph-name="Oslash" unicode="&#xd8;" horiz-adv-x="769" 
d="M499 301q10 14 10 34v6l-2 25l-15 -17q-17 -19 -55 -77q-1 -1 -1 -2q0 -2 3 -2q9 0 31 12t29 21zM485 431q13 17 37 17q16 0 19.5 -3t6.5 -19q4 -24 4 -86q0 -44 -2 -56t-13 -24q-13 -16 -56.5 -31.5t-87.5 -20.5l-43 -5v16q0 11 5.5 25.5t11.5 19.5q9 9 27 39
q47 73 91 128zM391 524q4 8 4 9q0 4 -31 4q-40 -1 -55.5 -17.5t-15.5 -61.5q0 -21 1 -33l4 -55l18 31q18 31 26 40q9 9 12 21q3 11 18.5 33.5t18.5 28.5zM365 579q17 1 40 1.5t38.5 1.5t20.5 1h9q9 0 11 -2.5t2 -13.5t-9 -24.5t-22 -27.5t-16 -19q-29 -41 -71 -113
q-50 -87 -51 -88q-3 -3 -28 -5l-26 -3l-7 73q-7 66 -7 110q0 71 26 94q8 7 24 10t66 5zM629 773q-8 16 -16 13l-2 -5q0 -3 -10 -17q-18 -22 -55 -73q-12 -18 -20 -23.5t-22 -5.5q-18 0 -18 11q0 9 -24.5 15t-94.5 14q-26 3 -44 3q-41 0 -78 -20q-80 -41 -114 -195
q-5 -23 -5 -63q0 -78 11 -109q23 -60 23 -115v-45l-42 -42q-37 -35 -37 -43q0 -2 1 -2q10 -5 16 -11q10 -10 32 -21q22 -10 23 -10q4 0 10 8q3 6 19 24q10 12 23 34q11 21 25 25q1 0 3 0.5t4 0.5q22 0 56 -8q48 -10 97 -10q62 0 99 14q71 27 109 77q22 27 31 31q9 2 20 24
q9 19 9 63q0 104 -37 204q-10 25 -24 26q-11 2 -13.5 6t-2.5 19q0 16 9.5 31.5t19.5 15.5q9 0 20 13.5t22.5 31.5t17.5 23q12 10 12 21q0 6 -5 6t-9 11q-5 12 -18 25q-12 12 -21 28zM581 828q16 19 35 19q21 0 39 -22q25 -30 34 -40q16 -18 20 -28q5 -13 20 -20
q11 -7 14.5 -13.5t3.5 -21.5q0 -23 -9 -26q-7 -3 -40.5 -47t-34.5 -45q-7 -7 -7 -13q0 -5 6 -20q23 -60 33 -194q4 -64 4 -78q0 -36 -6.5 -56.5t-24.5 -46.5q-30 -42 -64 -69q-41 -32 -52.5 -37.5t-44.5 -8.5q-107 -8 -152 -8t-64 6q-31 9 -33 9q-9 0 -15 -17
q-8 -18 -12 -18q-5 0 -23 -38q-13 -28 -18.5 -33.5t-20.5 -5.5q-21 0 -39 17q-11 9 -34 23t-32 21q-8 8 -23 18q-11 7 -14 13.5t-3 23.5q0 26 6 26t6 8t42 48l5 5q30 28 33 40q1 4 1 8q0 8 -15 60q-18 61 -18 177q0 54 5 77q11 55 36.5 108.5t50.5 76.5q11 11 51 27
q37 15 90 15q95 0 175 -18q1 0 3 -0.5t3 -0.5q7 0 14.5 7.5t24.5 31.5q7 9 16.5 22.5t17 23.5z" />
    <glyph glyph-name="aring" unicode="&#xe5;" horiz-adv-x="564" 
d="M444 458q0 14 -11 14q-8 0 -31 -10q-19 -8 -52 -8q-4 0 -13.5 0.5t-15.5 0.5q-38 2 -42 2q-10 0 -15 -1.5t-6.5 -4t-3.5 -8.5q-10 -21 -47 -84q-38 -63 -71 -130q-31 -61 -39 -73q-9 -13 -9 -17q0 -5 68 -5h67l4 18q2 11 21 54.5t20 47.5q4 9 37 9h25l58 -2l4 -76
q4 -76 6 -78h2q12 0 49 5q46 5 46 13q0 1 -1 3q-12 28 -32 140q-6 30 -6 102q0 66 -6 69q-6 4 -6 19zM254 525q0 6 21 6t21 -12q0 -22 39 -22q20 0 35 8q18 8 63 8h17q25 0 30.5 -13t11.5 -76q1 -17 2 -26q13 -153 34 -214q11 -32 13 -71l1 -35l-39 -5q-36 -5 -92 -7h-53
l-2 74q-1 73 -9 78t-21 5q-18 0 -18 -6q0 -3 -21 -49t-21 -60v-15q-40 1 -120 1t-120 1l-2 27v8q0 20 9 30q28 32 64 107q31 64 63 118t47 83q25 51 37 51q10 0 10 6zM413 679q-13 10 -33 10q-15 0 -21 -6q-10 -10 -20 -10q-11 0 -27 -35q-12 -26 -12 -35q0 -13 25 -20
q2 -1 7 -1q15 0 37 10.5t36 24.5q16 16 16 40q0 16 -8 22zM312 731q22 20 51 20q28 0 28 -9t16 -9q17 0 36 -12l19 -12v-56q0 -49 -9 -65.5t-46 -34.5q-31 -16 -67 -16q-51 0 -68.5 13.5t-17.5 53.5q0 33 16.5 69t41.5 58z" />
    <glyph glyph-name="ae" unicode="&#xe6;" horiz-adv-x="652" 
d="M586 448q0 14 -2 19t-8 4q-3 0 -25.5 -1.5t-40.5 -4t-21 -6.5q-2 -2 -50 -2q-56 0 -93 1l-137 4l-7 -29q-9 -38 -33.5 -105t-44.5 -108q-25 -51 -33 -72q-4 -9 -4 -15q0 -5 16 -5q30 -3 54 -9q30 -8 38 -8t10 6t2 24v14q0 41 10 77l8 32h144l-4 -76l-3 -77l72 3
q81 4 92 6q14 2 16.5 6.5t2.5 23.5v27l-28 -4q-9 -1 -30 -4t-27 -4l-28 -3l2 59l1 58q23 -1 70 -1t70 -1v51l-67 4q-61 4 -74.5 13t-13.5 47v32h166v24zM199 69q-29 0 -66 7t-65 7l-42 1l-1 20v8q0 21 58 144q30 64 56.5 139t26.5 98q0 8 21 9.5t140 3.5q163 2 182 7
q14 4 67 6h46v-25q0 -21 4 -65l4 -40l-83 -1q-65 -1 -65 -3q0 -1 10 -3q19 -4 76 -8l48 -5v-135l-71 2q-18 1 -41 1q-20 0 -25 -2t-5 -9t3.5 -9t18.5 -2q21 0 37 1l59 2v-20q0 -28 -3 -68l-4 -49l-22 -3q-20 -3 -132 -7l-112 -3l1 71v30q0 44 -2 46q-4 4 -29 6l-26 3l-7 -34
q-8 -28 -12 -78l-3 -43h-42z" />
    <glyph glyph-name="oslash" unicode="&#xf8;" horiz-adv-x="538" 
d="M322 349q3 10 25 10q16 0 18.5 -3.5t2.5 -22.5q0 -26 -18 -48q-18 -24 -18 -27q0 -5 -20 -5q-15 0 -18 3t-3 21q0 26 13 43q14 18 18 29zM202 419q0 5 24 5q17 0 20 -2.5t3 -14.5q0 -16 -19 -50q-13 -23 -19.5 -28t-21.5 -5q-17 0 -20 2.5t-3 17.5q0 32 28 62q8 8 8 13z
M451 526q-38 34 -57 41q-4 2 -9 2q-6 0 -14 -16q-11 -23 -39 -56q-6 -8 -6 -17q0 -7 -9 -7q-15 0 -75 11q-25 5 -33 5q-11 0 -29 -8q-40 -18 -58 -90q-9 -36 -9 -64q0 -33 12 -45q11 -11 11 -28q0 -25 -25 -52q-20 -20 -20 -27t31 -23q20 -10 41 -25q10 -10 19 -10
q13 0 28 28l16 29l64 2q42 2 57 5t34 14q27 16 36.5 31t14.5 50q7 35 11 61q1 4 1 11q0 16 -13 42q-16 32 -16 53q0 11 6 11t6 9t19 30l19 22zM165 69q-4 0 -66 32.5t-66 32.5q-9 0 -9 24q0 18 6.5 30t36.5 47q7 10 7 92q0 83 14 121q17 50 38.5 66.5t73.5 16.5q4 0 13 -0.5
t14 -0.5q7 0 20.5 -0.5t18.5 -0.5q25 0 25 2q0 5 12 17q10 10 33 48q15 26 21.5 31t22.5 5q23 0 23 -5t22 -16q15 -6 56 -37q23 -19 29 -27.5t6 -23.5q0 -32 -31 -67q-13 -14 -13 -20q0 -5 6 -20q7 -15 7 -55q0 -51 -10 -111q-7 -43 -17.5 -61.5t-37.5 -33.5
q-22 -12 -37.5 -15.5t-56.5 -4.5l-63 -2l-14 -26q-17 -32 -29.5 -44t-28.5 -12q-19 0 -19 9t-7 9z" />
  </font>
</defs>
</svg>
